<svg width="619" height="536" viewBox="0 0 619 536" fill="none" xmlns="http://www.w3.org/2000/svg">
<path d="M1 527.637H617.541" stroke="#263238" stroke-linecap="round" stroke-linejoin="round"/>
<path d="M475.481 319.657V319.815C475.481 320.073 475.538 320.345 475.653 320.632C476.294 323.774 476.772 326.946 477.086 330.137C477.359 332.875 477.574 336.001 477.631 339.485C477.767 347.536 477.216 355.584 475.982 363.541C475.667 365.634 475.294 367.842 474.85 370.05C474.147 373.691 473.287 377.505 472.226 381.447C471.753 383.282 471.208 385.161 470.635 387.053L469.961 389.361C469.703 390.293 469.445 391.225 469.201 392.228C467.553 398.598 466.237 405.048 465.259 411.554C464.04 419.654 463.28 427.697 462.865 435.31C462.305 445.46 462.334 454.836 462.578 462.549C462.571 462.678 462.571 462.807 462.578 462.936C462.836 470.778 463.323 476.928 463.653 480.427C463.839 482.477 463.968 483.638 463.983 483.71" stroke="#263238" stroke-linecap="round" stroke-linejoin="round"/>
<path d="M475.524 319.858C473.377 317.95 470.791 316.605 467.997 315.944L475.524 319.858Z" fill="white"/>
<path d="M475.524 319.858C473.377 317.95 470.791 316.605 467.997 315.944" stroke="#263238" stroke-linecap="round" stroke-linejoin="round"/>
<path d="M477.129 330.18L480.943 326.725" stroke="#263238" stroke-linecap="round" stroke-linejoin="round"/>
<path d="M472.269 381.462C472.069 380.455 471.772 379.471 471.38 378.523C470.815 377.132 470.047 375.832 469.101 374.666C468.395 373.79 467.591 372.997 466.707 372.301" stroke="#263238" stroke-linecap="round" stroke-linejoin="round"/>
<path d="M469.216 392.214C469.756 390.875 470.565 389.661 471.594 388.648C472.622 387.634 473.847 386.843 475.194 386.322" stroke="#263238" stroke-linecap="round" stroke-linejoin="round"/>
<path d="M462.592 445.546C463.868 443.998 464.829 438.134 465.345 434.98C465.474 434.234 465.574 433.546 465.675 433.13" fill="white"/>
<path d="M462.592 445.546C463.868 443.998 464.829 438.134 465.345 434.98C465.474 434.234 465.574 433.546 465.675 433.13" stroke="#263238" stroke-linecap="round" stroke-linejoin="round"/>
<path d="M452.772 456.184C453.196 456.141 453.623 456.141 454.048 456.184C455.925 456.366 457.718 457.056 459.234 458.18C460.749 459.304 461.93 460.819 462.65 462.563" fill="white"/>
<path d="M452.772 456.184C453.196 456.141 453.623 456.141 454.048 456.184C455.925 456.366 457.718 457.056 459.234 458.18C460.749 459.304 461.93 460.819 462.65 462.563" stroke="#263238" stroke-linecap="round" stroke-linejoin="round"/>
<path d="M474.893 370.165C474.893 370.165 475.567 346.896 462.793 338.452" stroke="#263238" stroke-linecap="round" stroke-linejoin="round"/>
<path d="M475.982 420.041C477.66 425.475 465.947 435.811 465.947 435.811C465.947 435.811 450.478 433.876 448.743 428.457C447.008 423.038 450.98 414.12 458.492 411.826C466.004 409.533 474.362 414.608 475.982 420.041Z" fill="#92E3A9"/>
<path d="M489.014 354.194C487.581 359.928 476.455 364.043 476.455 364.043C476.455 364.043 468.814 355.111 470.248 349.348C471.681 343.585 477.86 337.248 483.05 338.581C488.24 339.915 490.505 348.43 489.014 354.194Z" fill="#92E3A9"/>
<path d="M444.586 440.313C451.539 443.008 455.797 455.309 455.797 455.309C455.797 455.309 444.327 461.488 437.389 458.778C430.45 456.069 423.052 448.442 425.059 443.352C427.066 438.263 437.632 437.546 444.586 440.313Z" fill="#92E3A9"/>
<path d="M459.825 372.645C461.233 373.828 462.846 374.742 464.585 375.34C465.458 375.623 466.392 375.66 467.284 375.447C468.177 375.235 468.994 374.781 469.646 374.136C471.079 372.43 470.735 369.835 469.803 367.699C467.94 363.613 461.087 356.66 455.825 358.652C448.227 361.563 456.442 370.165 459.825 372.645Z" fill="#92E3A9"/>
<path d="M475.38 383.067C474.377 384.3 473.316 385.863 473.875 387.368C474.187 388.001 474.699 388.512 475.332 388.823C475.964 389.135 476.682 389.228 477.373 389.089C478.748 388.762 480.032 388.13 481.129 387.239C483.81 385.376 489.315 381.505 485.803 377.82C482.291 374.136 477.416 380.473 475.38 383.067Z" fill="#92E3A9"/>
<path d="M452.944 331.069C452.365 331.103 451.811 331.317 451.361 331.683C450.911 332.048 450.587 332.545 450.435 333.105C450.205 334.438 451.309 335.599 452.37 336.416C455.037 338.481 463.051 344.015 464.829 338.667C466.52 333.621 456.47 330.682 452.944 331.069Z" fill="#92E3A9"/>
<path d="M467.696 313.492C466.047 313.65 464.398 313.048 462.735 313.148C461.072 313.249 459.252 314.582 459.61 316.216C459.968 317.851 461.818 318.209 463.338 318.295C465.954 318.463 468.581 318.285 471.151 317.765C471.759 317.707 472.323 317.42 472.728 316.962C473.402 315.973 472.341 314.654 471.194 314.31C470.017 314.153 468.859 313.874 467.739 313.478L467.696 313.492Z" fill="#92E3A9"/>
<path d="M483.839 324.861C485.488 324.861 487.093 324.202 488.756 324.187C490.419 324.173 492.34 325.392 492.068 327.055C491.796 328.718 490.018 329.191 488.498 329.377C485.9 329.721 483.268 329.721 480.67 329.377C480.055 329.363 479.47 329.111 479.036 328.675C478.305 327.743 479.28 326.352 480.384 325.922C481.553 325.704 482.693 325.353 483.782 324.876L483.839 324.861Z" fill="#92E3A9"/>
<path d="M482.204 447.037C482.584 446.641 483.092 446.392 483.638 446.334C484.007 446.369 484.351 446.532 484.613 446.793C484.874 447.055 485.037 447.4 485.072 447.768C485.151 448.476 485.063 449.193 484.814 449.861C483.681 453.632 471.065 480.857 468.155 475.968C466.449 473.101 470.664 463.509 471.911 460.8C474.291 455.513 477.805 450.814 482.204 447.037Z" fill="#92E3A9"/>
<path d="M476.054 321.42C476.054 321.42 475.294 314.811 476.886 314.252" stroke="#263238" stroke-linecap="round" stroke-linejoin="round"/>
<path d="M474.649 314.525C475.462 312.191 476.865 310.107 478.721 308.475C480.714 307.041 483.911 306.926 485.359 308.919C486.979 311.141 485.359 314.51 482.878 315.7C480.398 316.89 477.473 316.532 474.75 316.145C474.75 315.743 474.75 315.342 474.75 314.94L474.649 314.525Z" fill="#92E3A9"/>
<path d="M481.445 527.307C467.93 529.586 454.129 529.586 440.614 527.307L424.729 480.441H497.33L481.445 527.307Z" fill="white" stroke="#263238" stroke-linecap="round" stroke-linejoin="round"/>
<path d="M204.378 188.708V188.865C204.435 189.123 204.492 189.396 204.55 189.682C205.199 192.823 205.678 195.996 205.983 199.188C206.256 201.926 206.456 205.051 206.528 208.535C206.675 216.566 206.138 224.595 204.922 232.534C204.607 234.627 204.234 236.835 203.79 239.043C203.087 242.684 202.213 246.498 201.166 250.44C200.679 252.276 200.148 254.154 199.575 256.046C199.345 256.82 199.116 257.58 198.901 258.354C198.686 259.128 198.371 260.218 198.127 261.222" stroke="#263238" stroke-linecap="round" stroke-linejoin="round"/>
<path d="M204.406 188.908C203.378 188.008 202.253 187.224 201.051 186.571C199.727 185.873 198.321 185.344 196.865 184.994" fill="white"/>
<path d="M204.406 188.908C203.378 188.008 202.253 187.224 201.051 186.571C199.727 185.873 198.321 185.344 196.865 184.994" stroke="#263238" stroke-linecap="round" stroke-linejoin="round"/>
<path d="M206.012 199.231L209.84 195.775" stroke="#263238" stroke-linecap="round" stroke-linejoin="round"/>
<path d="M201.166 250.512C200.962 249.505 200.659 248.521 200.263 247.573C199.698 246.182 198.93 244.883 197.983 243.717C197.277 242.841 196.474 242.047 195.589 241.351" stroke="#263238" stroke-linecap="round" stroke-linejoin="round"/>
<path d="M198.113 261.207C198.648 259.867 199.453 258.653 200.48 257.639C201.506 256.625 202.73 255.834 204.077 255.315" stroke="#263238" stroke-linecap="round" stroke-linejoin="round"/>
<path d="M191.475 314.596C192.751 313.048 193.726 307.184 194.242 304.03C194.356 303.285 194.471 302.597 194.557 302.181" fill="white"/>
<path d="M191.475 314.596C192.751 313.048 193.726 307.184 194.242 304.03C194.356 303.285 194.471 302.597 194.557 302.181" stroke="#263238" stroke-linecap="round" stroke-linejoin="round"/>
<path d="M181.654 325.177C182.083 325.134 182.515 325.134 182.944 325.177C184.821 325.364 186.611 326.056 188.126 327.179C189.641 328.302 190.823 329.815 191.546 331.556" fill="white"/>
<path d="M181.654 325.177C182.083 325.134 182.515 325.134 182.944 325.177C184.821 325.364 186.611 326.056 188.126 327.179C189.641 328.302 190.823 329.815 191.546 331.556" stroke="#263238" stroke-linecap="round" stroke-linejoin="round"/>
<path d="M203.775 239.158C203.775 239.158 204.464 215.89 191.675 207.445" stroke="#263238" stroke-linecap="round" stroke-linejoin="round"/>
<path d="M204.937 289.092C206.6 294.525 194.901 304.862 194.901 304.862C194.901 304.862 179.418 302.926 177.697 297.507C175.977 292.088 179.948 283.171 187.446 280.877C194.944 278.583 203.259 283.673 204.937 289.092Z" fill="#92E3A9"/>
<path d="M217.925 223.244C216.492 228.979 205.367 233.093 205.367 233.093C205.367 233.093 197.639 224.162 199.13 218.398C200.621 212.635 206.729 206.298 211.918 207.632C217.108 208.965 219.359 217.481 217.925 223.244Z" fill="#92E3A9"/>
<path d="M173.482 309.363C180.436 312.073 184.708 324.359 184.708 324.359C184.708 324.359 173.239 330.538 166.286 327.829C159.332 325.119 151.949 317.492 153.97 312.403C155.992 307.313 166.515 306.654 173.482 309.363Z" fill="#92E3A9"/>
<path d="M188.722 241.695C190.124 242.878 191.733 243.792 193.467 244.39C194.34 244.673 195.274 244.71 196.167 244.498C197.059 244.285 197.876 243.832 198.528 243.186C199.962 241.48 199.618 238.885 198.686 236.749C196.822 232.663 189.984 225.71 184.708 227.703C177.124 230.584 185.324 239.186 188.722 241.695Z" fill="#92E3A9"/>
<path d="M204.263 252.132C203.274 253.365 202.213 255 202.758 256.433C203.069 257.066 203.581 257.577 204.214 257.888C204.847 258.199 205.564 258.293 206.256 258.154C207.632 257.83 208.916 257.198 210.012 256.304C212.693 254.455 218.198 250.57 214.685 246.885C211.173 243.201 206.37 249.523 204.263 252.132Z" fill="#92E3A9"/>
<path d="M181.826 200.119C181.248 200.155 180.696 200.371 180.246 200.736C179.796 201.101 179.472 201.597 179.317 202.155C179.088 203.488 180.192 204.65 181.267 205.467C183.934 207.531 191.933 213.065 193.726 207.718C195.403 202.671 185.367 199.732 181.826 200.119Z" fill="#92E3A9"/>
<path d="M196.579 182.543C194.93 182.701 193.281 182.098 191.632 182.199C189.984 182.299 188.134 183.632 188.507 185.267C188.88 186.901 190.701 187.26 192.235 187.346C194.846 187.513 197.469 187.335 200.034 186.815C200.646 186.758 201.215 186.471 201.625 186.012C202.284 185.023 201.224 183.704 200.091 183.36C198.909 183.204 197.746 182.925 196.622 182.529L196.579 182.543Z" fill="#92E3A9"/>
<path d="M212.721 193.912C214.384 193.912 215.99 193.252 217.639 193.238C219.287 193.224 221.223 194.442 220.965 196.105C220.707 197.768 218.9 198.241 217.381 198.428C214.783 198.772 212.151 198.772 209.553 198.428C208.938 198.414 208.352 198.162 207.919 197.725C207.187 196.793 208.162 195.403 209.281 194.973C210.448 194.75 211.588 194.399 212.678 193.926L212.721 193.912Z" fill="#92E3A9"/>
<path d="M211.087 316.087C211.468 315.693 211.976 315.445 212.521 315.385C212.886 315.428 213.227 315.592 213.487 315.852C213.747 316.113 213.912 316.453 213.954 316.818C214.029 317.528 213.935 318.245 213.682 318.912C212.564 322.682 199.933 349.907 197.037 345.018C195.317 342.151 199.532 332.56 200.779 329.85C203.163 324.562 206.683 319.863 211.087 316.087Z" fill="#92E3A9"/>
<path d="M204.937 190.5C204.937 190.5 204.177 183.89 205.783 183.331" stroke="#263238" stroke-linecap="round" stroke-linejoin="round"/>
<path d="M203.589 183.575C204.391 181.236 205.796 179.149 207.661 177.525C209.653 176.091 212.836 175.977 214.284 177.97C215.904 180.192 214.284 183.561 211.804 184.751C209.324 185.941 206.413 185.582 203.689 185.195C203.689 184.794 203.689 184.392 203.689 183.991L203.589 183.575Z" fill="#92E3A9"/>
<path d="M22.7341 347.183V205.524" stroke="#263238" stroke-linecap="round" stroke-linejoin="round"/>
<path d="M465.015 347.183H447.51" stroke="#263238" stroke-linecap="round" stroke-linejoin="round"/>
<path d="M602.287 347.183H566.632" stroke="#263238" stroke-linecap="round" stroke-linejoin="round"/>
<path d="M445.905 131.978H509.085V71.7934" stroke="#263238" stroke-linecap="round" stroke-linejoin="round"/>
<path d="M77.6572 113.599H144.781V162.558H218.356" stroke="#263238" stroke-linecap="round" stroke-linejoin="round"/>
<path d="M38.0598 279.4V171.217" stroke="#263238" stroke-linecap="round" stroke-linejoin="round"/>
<path d="M68.0518 124.265V209.051" stroke="#263238" stroke-linecap="round" stroke-linejoin="round"/>
<path d="M98.0294 124.265V199.216" stroke="#263238" stroke-linecap="round" stroke-linejoin="round"/>
<path d="M128.007 124.265V255.372" stroke="#263238" stroke-linecap="round" stroke-linejoin="round"/>
<path d="M271.616 105.671V19.4652H393.662V105.671" stroke="#263238" stroke-linecap="round" stroke-linejoin="round"/>
<path d="M280.562 62.2883V29.7015H303.127" stroke="#263238" stroke-linecap="round" stroke-linejoin="round"/>
<path d="M308.088 62.2883V29.7015H330.653" stroke="#263238" stroke-linecap="round" stroke-linejoin="round"/>
<path d="M335.614 62.2883V29.7015H358.179" stroke="#263238" stroke-linecap="round" stroke-linejoin="round"/>
<path d="M363.14 62.2883V29.7015H385.706" stroke="#263238" stroke-linecap="round" stroke-linejoin="round"/>
<path d="M280.562 105.671V73.0837H303.127" stroke="#263238" stroke-linecap="round" stroke-linejoin="round"/>
<path d="M308.088 105.671V73.0837H330.653" stroke="#263238" stroke-linecap="round" stroke-linejoin="round"/>
<path d="M335.614 105.671V73.0837H358.179" stroke="#263238" stroke-linecap="round" stroke-linejoin="round"/>
<path d="M363.14 105.671V73.0837H385.706" stroke="#263238" stroke-linecap="round" stroke-linejoin="round"/>
<path d="M518.863 79.2484V187.274" stroke="#263238" stroke-linecap="round" stroke-linejoin="round"/>
<path d="M563.177 339.269H566.632" stroke="#263238" stroke-linecap="round" stroke-linejoin="round"/>
<path d="M545.428 110.273V231.215" stroke="#263238" stroke-linecap="round" stroke-linejoin="round"/>
<path d="M572.008 308.389V339.269H593.212" stroke="#263238" stroke-linecap="round" stroke-linejoin="round"/>
<path d="M572.008 149.698V231.832" stroke="#263238" stroke-linecap="round" stroke-linejoin="round"/>
<path d="M598.574 212.019V339.269H603.405" stroke="#263238" stroke-linecap="round" stroke-linejoin="round"/>
<path d="M274.827 349.778H1V527.637H274.827V349.778Z" fill="white" stroke="#263238" stroke-linecap="round" stroke-linejoin="round"/>
<path d="M1 349.778L137.914 438.707L274.827 349.778H1Z" fill="white" stroke="#263238" stroke-linecap="round" stroke-linejoin="round"/>
<path d="M96.7535 411.97L1 527.637" stroke="#263238" stroke-linecap="round" stroke-linejoin="round"/>
<path d="M179.819 411.97L275.573 527.637" stroke="#263238" stroke-linecap="round" stroke-linejoin="round"/>
<path d="M421.36 122.831H357.706C355.873 122.834 354.074 123.327 352.496 124.259C350.917 125.192 349.618 126.531 348.732 128.136C347.168 130.959 344.876 133.312 342.095 134.95C339.315 136.588 336.146 137.452 332.919 137.452C329.691 137.452 326.523 136.588 323.742 134.95C320.961 133.312 318.67 130.959 317.105 128.136C316.227 126.51 314.925 125.152 313.337 124.206C311.75 123.259 309.936 122.76 308.088 122.76H244.505C242.76 122.737 241.027 123.058 239.406 123.705C237.785 124.352 236.307 125.312 235.057 126.53C233.807 127.748 232.809 129.201 232.121 130.805C231.432 132.408 231.066 134.132 231.043 135.878V494.892C231.093 498.416 232.538 501.776 235.061 504.235C237.585 506.694 240.982 508.052 244.505 508.01H421.36C424.885 508.052 428.283 506.695 430.81 504.236C433.336 501.777 434.784 498.417 434.837 494.892V135.949C434.788 132.423 433.341 129.061 430.814 126.601C428.287 124.141 424.887 122.785 421.36 122.831Z" fill="#92E3A9"/>
<path d="M441.044 131.978C441.052 129.56 440.582 127.163 439.662 124.927C438.742 122.69 437.389 120.658 435.681 118.945C433.974 117.232 431.945 115.873 429.712 114.946C427.478 114.019 425.083 113.541 422.665 113.541H243.215C240.802 113.539 238.412 114.013 236.183 114.935C233.953 115.857 231.927 117.21 230.22 118.915C228.513 120.621 227.159 122.646 226.235 124.875C225.311 127.104 224.836 129.493 224.836 131.906V509.229C224.836 514.099 226.771 518.771 230.215 522.215C233.659 525.659 238.33 527.594 243.201 527.594H422.665C427.537 527.594 432.21 525.659 435.656 522.216C439.103 518.772 441.041 514.101 441.044 509.229V131.978ZM434.837 494.892C434.784 498.417 433.336 501.777 430.809 504.236C428.283 506.695 424.885 508.052 421.36 508.01H244.505C240.982 508.052 237.585 506.695 235.061 504.235C232.538 501.776 231.092 498.416 231.043 494.892V135.949C231.066 134.204 231.432 132.48 232.121 130.876C232.809 129.272 233.807 127.82 235.057 126.602C236.307 125.384 237.785 124.424 239.406 123.777C241.027 123.13 242.76 122.809 244.505 122.831H308.116C309.963 122.831 311.775 123.33 313.36 124.277C314.945 125.224 316.244 126.582 317.12 128.208C318.684 131.031 320.975 133.383 323.756 135.022C326.537 136.66 329.705 137.524 332.933 137.524C336.16 137.524 339.329 136.66 342.11 135.022C344.89 133.383 347.182 131.031 348.746 128.208C349.63 126.6 350.929 125.26 352.507 124.327C354.086 123.394 355.887 122.902 357.721 122.903H421.375C423.12 122.88 424.853 123.202 426.474 123.849C428.095 124.495 429.573 125.455 430.823 126.674C432.073 127.892 433.071 129.344 433.759 130.948C434.448 132.552 434.814 134.276 434.837 136.021V494.892Z" fill="#263238"/>
<path opacity="0.2" d="M380.071 113.599L260.863 527.622L308.202 527.579L422.995 113.599H380.071Z" fill="white"/>
<path opacity="0.2" d="M362.294 113.599L236.262 527.637L243.158 527.594L366.824 113.599H362.294Z" fill="white"/>
<path d="M365.09 421.389C365.178 425.493 364.444 429.573 362.931 433.389C361.418 437.204 359.156 440.679 356.28 443.607C353.404 446.536 349.97 448.859 346.182 450.44C342.394 452.022 338.328 452.829 334.223 452.814C325.848 452.783 317.816 449.478 311.843 443.607C305.87 437.736 302.429 429.763 302.253 421.389C302.167 417.286 302.902 413.208 304.416 409.394C305.93 405.579 308.192 402.107 311.068 399.18C313.944 396.253 317.377 393.931 321.164 392.35C324.951 390.77 329.016 389.963 333.119 389.978C341.493 390.006 349.525 393.307 355.498 399.176C361.472 405.045 364.914 413.017 365.09 421.389Z" fill="white" stroke="#263238" stroke-linecap="round" stroke-linejoin="round"/>
<path d="M323.37 444.843C320.452 443.764 317.777 442.117 315.5 439.998C313.204 437.792 311.426 435.103 310.296 432.127C309.007 428.79 308.37 425.238 308.418 421.661C308.4 418.612 308.939 415.585 310.009 412.73C310.981 410.092 312.44 407.661 314.31 405.561C317.995 401.53 322.755 398.635 328.03 397.218C330.619 396.519 333.29 396.168 335.972 396.171C338.199 396.161 340.419 396.426 342.581 396.959C344.668 397.472 346.664 398.298 348.502 399.411C350.322 400.504 351.954 401.884 353.334 403.497C354.772 405.236 355.871 407.23 356.574 409.375C357.378 411.822 357.775 414.384 357.749 416.959C357.719 421.936 355.926 426.741 352.689 430.521C351.296 432.099 349.649 433.432 347.814 434.464C346.233 435.371 344.448 435.864 342.624 435.897C341.366 435.914 340.136 435.516 339.126 434.765C338.619 434.389 338.206 433.901 337.92 433.339C337.634 432.777 337.483 432.156 337.478 431.525C336.537 432.955 335.246 434.12 333.728 434.911C332.21 435.701 330.515 436.09 328.804 436.041C327.458 436.101 326.116 435.859 324.876 435.333C323.635 434.807 322.528 434.011 321.636 433.001C319.846 430.921 318.9 428.246 318.984 425.503C318.995 423.246 319.388 421.007 320.145 418.88C320.898 416.737 321.966 414.717 323.313 412.887C324.656 411.089 326.366 409.599 328.331 408.515C330.295 407.406 332.513 406.828 334.768 406.837C336.336 406.821 337.883 407.196 339.27 407.927C340.616 408.645 341.708 409.761 342.395 411.124L342.682 410.163C342.91 409.491 343.396 408.936 344.034 408.622C344.671 408.307 345.407 408.258 346.08 408.486C346.34 408.575 346.586 408.7 346.811 408.859C347.024 409.029 347.194 409.248 347.307 409.498C347.419 409.747 347.47 410.019 347.456 410.292C347.456 410.561 347.413 410.827 347.327 411.081L342.682 426.536C342.272 427.713 342.007 428.936 341.893 430.177C341.851 430.409 341.865 430.647 341.937 430.872C342.008 431.096 342.134 431.3 342.302 431.464C342.471 431.628 342.678 431.749 342.904 431.814C343.13 431.88 343.369 431.889 343.599 431.84C345.243 431.735 346.783 431.001 347.9 429.79C349.449 428.259 350.639 426.403 351.384 424.357C352.274 422.121 352.731 419.737 352.732 417.332C352.751 415.213 352.441 413.105 351.814 411.081C351.287 409.336 350.452 407.7 349.348 406.25C348.303 404.929 347.037 403.799 345.606 402.909C344.18 402.009 342.623 401.337 340.99 400.916C339.315 400.476 337.59 400.254 335.858 400.257C333.661 400.26 331.475 400.569 329.363 401.174C327.189 401.79 325.116 402.723 323.213 403.941C321.294 405.152 319.556 406.629 318.052 408.328C316.502 410.118 315.297 412.179 314.496 414.407C313.596 416.833 313.144 419.403 313.163 421.991C313.116 425.056 313.671 428.1 314.797 430.951C315.768 433.419 317.3 435.628 319.27 437.403C321.174 439.055 323.373 440.335 325.75 441.173C328.259 442.061 330.903 442.507 333.564 442.492C336.408 442.492 339.235 442.062 341.951 441.216C342.222 441.119 342.508 441.07 342.796 441.073C343.065 441.069 343.332 441.121 343.579 441.228C343.826 441.334 344.048 441.491 344.23 441.689C344.413 441.88 344.557 442.104 344.653 442.35C344.748 442.596 344.795 442.859 344.789 443.123C344.824 443.54 344.706 443.955 344.459 444.293C344.211 444.63 343.85 444.866 343.442 444.958C340.058 445.993 336.543 446.533 333.005 446.564C329.717 446.559 326.456 445.977 323.37 444.843ZM335.212 429.976C336.63 428.959 337.681 427.511 338.209 425.848L341.205 415.31L341.004 414.88C340.818 414.535 340.592 414.212 340.331 413.92C339.971 413.505 339.578 413.122 339.155 412.773C338.618 412.344 338.012 412.009 337.363 411.783C335.666 411.191 333.809 411.257 332.159 411.97C331.255 412.353 330.425 412.891 329.707 413.561C328.961 414.257 328.297 415.036 327.729 415.884C327.159 416.766 326.679 417.702 326.295 418.679C325.892 419.657 325.58 420.669 325.363 421.704C325.147 422.688 325.036 423.693 325.034 424.701C325.021 425.348 325.059 425.995 325.148 426.636C325.214 427.207 325.339 427.769 325.521 428.313C325.678 428.82 325.905 429.303 326.195 429.747C326.454 430.147 326.785 430.497 327.17 430.779C327.58 431.077 328.042 431.295 328.532 431.424C329.104 431.592 329.699 431.67 330.295 431.654C332.089 431.676 333.839 431.101 335.27 430.019L335.212 429.976Z" fill="#92E3A9" stroke="#263238" stroke-linecap="round" stroke-linejoin="round"/>
<path d="M364.387 313.679C364.473 317.781 363.738 321.86 362.224 325.674C360.71 329.488 358.448 332.961 355.572 335.888C352.696 338.815 349.263 341.137 345.476 342.717C341.689 344.298 337.624 345.104 333.521 345.09C325.147 345.062 317.115 341.761 311.142 335.892C305.168 330.023 301.726 322.051 301.55 313.679C301.46 309.574 302.193 305.494 303.705 301.677C305.218 297.86 307.479 294.385 310.356 291.456C313.232 288.527 316.667 286.204 320.455 284.623C324.244 283.043 328.311 282.237 332.417 282.253C340.792 282.285 348.824 285.589 354.797 291.46C360.77 297.332 364.211 305.305 364.387 313.679Z" fill="white" stroke="#263238" stroke-linecap="round" stroke-linejoin="round"/>
<path d="M352.689 310.811C342.839 304.36 323.528 304.36 314.138 310.811C312.42 311.133 310.876 312.062 309.787 313.428C308.697 314.794 308.135 316.506 308.203 318.252C308.346 322.424 325.679 322.424 325.535 318.252C325.451 316.508 324.785 314.842 323.643 313.521C330.144 312.116 336.869 312.116 343.37 313.521C342.312 314.866 341.764 316.542 341.822 318.252C341.965 322.424 359.298 322.424 359.14 318.252C359.059 316.467 358.377 314.761 357.207 313.411C356.036 312.061 354.444 311.145 352.689 310.811Z" fill="#92E3A9" stroke="#263238" stroke-linecap="round" stroke-linejoin="round"/>
<path d="M364.387 209.051C364.559 216.778 360.344 223.689 353.577 228.291V247.057L340.115 233.581C337.939 233.97 335.732 234.162 333.521 234.154C316.173 234.154 301.851 222.914 301.55 209.051C301.249 195.188 315.055 183.962 332.417 183.962C349.778 183.962 364.158 195.259 364.387 209.051Z" fill="white" stroke="#263238" stroke-linecap="round" stroke-linejoin="round"/>
<path d="M319.585 209.051C319.588 209.857 319.352 210.645 318.906 211.317C318.461 211.988 317.826 212.512 317.082 212.823C316.338 213.133 315.519 213.216 314.728 213.06C313.938 212.905 313.211 212.518 312.64 211.949C312.069 211.381 311.68 210.655 311.522 209.865C311.363 209.075 311.443 208.255 311.751 207.511C312.059 206.766 312.581 206.129 313.25 205.681C313.92 205.233 314.708 204.994 315.514 204.994C316.591 204.994 317.625 205.421 318.388 206.181C319.151 206.942 319.582 207.974 319.585 209.051Z" fill="#92E3A9" stroke="#263238" stroke-linecap="round" stroke-linejoin="round"/>
<path d="M337.004 209.051C337.007 209.857 336.771 210.645 336.325 211.317C335.88 211.988 335.245 212.512 334.501 212.823C333.757 213.133 332.938 213.216 332.147 213.06C331.357 212.905 330.63 212.518 330.059 211.949C329.488 211.381 329.099 210.655 328.941 209.865C328.782 209.075 328.862 208.255 329.17 207.511C329.478 206.766 329.999 206.129 330.669 205.681C331.339 205.233 332.127 204.994 332.933 204.994C334.01 204.994 335.044 205.421 335.807 206.181C336.57 206.942 337.001 207.974 337.004 209.051Z" fill="#92E3A9" stroke="#263238" stroke-linecap="round" stroke-linejoin="round"/>
<path d="M354.423 209.051C354.426 209.857 354.19 210.645 353.744 211.317C353.299 211.988 352.664 212.512 351.92 212.823C351.176 213.133 350.357 213.216 349.566 213.06C348.776 212.905 348.049 212.518 347.478 211.949C346.907 211.381 346.518 210.655 346.36 209.865C346.201 209.075 346.281 208.255 346.589 207.511C346.897 206.766 347.418 206.129 348.088 205.681C348.758 205.233 349.546 204.994 350.352 204.994C351.429 204.994 352.463 205.421 353.226 206.181C353.989 206.942 354.42 207.974 354.423 209.051Z" fill="#92E3A9" stroke="#263238" stroke-linecap="round" stroke-linejoin="round"/>
<path d="M157.426 266.268C156.917 267.215 156.183 268.022 155.289 268.619C148.675 273.895 141.909 278.956 134.989 283.802C132.451 285.579 129.813 287.414 127.362 289.407C112.624 299.271 121.627 301.679 112.624 322.553C110.502 327.542 110.889 351.986 110.889 351.986H110.158C108.432 350.283 106.598 348.693 104.667 347.226C104.4 347.047 104.123 346.884 103.836 346.739C103.566 346.6 103.276 346.508 102.975 346.466C101.542 346.38 96.0796 347.04 90.5601 346.681L89.1264 346.567C88.3236 346.481 87.5351 346.38 86.7466 346.237C85.9581 346.094 85.1982 345.936 84.4671 345.735C79.229 344.056 74.0927 342.074 69.084 339.8L66.5895 338.725L65.3565 338.194L64.2383 337.707L63.4354 337.363L62.6613 337.033C61.3566 336.488 60.138 335.986 59.0198 335.599C58.5072 335.415 57.9856 335.258 57.4571 335.126C57.4571 336.302 57.2707 337.506 57.113 338.682C56.4249 344.287 54.8909 349.463 52.1526 350.151C52.0962 350.165 52.037 350.165 51.9806 350.151C51.7394 350.196 51.4948 350.22 51.2494 350.223H51.0344C50.4278 350.21 49.8273 350.099 49.2566 349.893C46.7715 348.832 44.7406 346.928 43.522 344.517C42.9775 343.5 42.6734 342.372 42.6332 341.219C42.6332 337.047 41.4719 312.432 41.4719 305.263C41.4719 298.095 42.9056 285.551 46.4754 280.891C47.8705 278.916 49.6324 277.227 51.6652 275.916C54.2808 273.736 57.2808 272.063 60.5108 270.985C64.3243 269.737 72.8545 266.555 78.8042 264.304L69.8152 267.773C72.0947 271.673 76.9834 277.809 85.8004 278.597C94.0869 279.3 99.2193 271.802 101.843 266.325C102.072 266.411 116.495 263.673 119.835 263.831C130.717 264.304 139.591 258.412 143.605 256.075C144.816 255.351 146.175 254.911 147.58 254.786C148.985 254.662 150.4 254.856 151.719 255.355C153.038 255.854 154.228 256.645 155.198 257.668C156.169 258.691 156.896 259.921 157.325 261.265V261.394C157.952 262.952 157.988 264.685 157.426 266.268Z" fill="#92E3A9" stroke="#263238" stroke-linecap="round" stroke-linejoin="round"/>
<path d="M101.685 266.411L101.026 266.182L101.685 266.411Z" fill="white" stroke="#263238" stroke-linecap="round" stroke-linejoin="round"/>
<path d="M113.914 358.294C113.921 358.351 113.921 358.409 113.914 358.466C113.856 358.604 113.767 358.728 113.655 358.828C113.543 358.928 113.409 359.001 113.265 359.042C113.12 359.083 112.968 359.092 112.82 359.066C112.672 359.041 112.532 358.983 112.409 358.896C111.749 358.523 110.732 356.129 110.732 356.129L109.599 354.954L108.853 354.165C108.968 354.452 109.871 356.645 109.398 357.663C109.374 357.733 109.335 357.797 109.284 357.849C108.967 358.273 108.556 358.616 108.083 358.853C107.61 359.089 107.088 359.212 106.56 359.211C105.943 359.211 104.137 359.426 102.56 359.527H102.388C101.91 359.553 101.432 359.553 100.954 359.527C99.6811 359.363 98.4532 358.949 97.3412 358.308C94.8192 357.938 92.3343 357.348 89.9149 356.545L89.4848 356.315L89.0977 356.086C88.8432 355.932 88.6075 355.75 88.3953 355.541C87.5216 354.813 86.7796 353.94 86.2018 352.961C86.2018 352.961 80.3812 352.717 72.5678 352.115C69.7005 351.9 66.6038 351.627 63.3924 351.312C58.4606 350.81 54.3891 350.839 51.192 350.394H50.9627C50.3319 350.308 49.7441 350.194 49.1849 350.065C47.8205 349.798 46.5588 349.152 45.5445 348.201C44.5302 347.25 43.8044 346.033 43.4503 344.689C43.2626 344.052 43.1095 343.406 42.9916 342.753L45.4861 338.452C46.7863 337.409 48.2362 336.568 49.7871 335.958C52.1932 334.951 54.85 334.706 57.3997 335.255C57.9283 335.386 58.4498 335.544 58.9624 335.728C60.0807 336.158 61.2993 336.66 62.6039 337.162L63.3924 337.492L64.1952 337.836L65.3135 338.323C71.6932 340.961 79.3059 344.359 84.3954 345.792C85.924 346.193 87.482 346.471 89.0547 346.624L90.4884 346.739C96.0079 347.097 101.456 346.438 102.904 346.524C104.352 346.61 107.893 349.979 110.158 352.058C110.775 352.631 111.319 353.104 111.692 353.391L111.864 353.534L111.993 353.649C112.814 354.491 113.389 355.542 113.656 356.688C113.769 357.072 113.846 357.466 113.886 357.864C113.912 358.006 113.921 358.15 113.914 358.294Z" fill="white" stroke="#263238" stroke-linecap="round" stroke-linejoin="round"/>
<path d="M113.914 358.294C113.921 358.351 113.921 358.409 113.914 358.466C113.855 358.603 113.765 358.726 113.652 358.824C113.539 358.922 113.405 358.994 113.261 359.034C113.117 359.073 112.965 359.08 112.818 359.054C112.67 359.028 112.531 358.969 112.409 358.882C111.7 358.059 111.133 357.124 110.732 356.115L109.599 354.954L108.853 354.179C108.954 354.409 109.886 356.645 109.413 357.677C109.389 357.747 109.349 357.811 109.298 357.864C109.139 358.075 108.956 358.268 108.753 358.437C108.135 358.934 107.367 359.207 106.574 359.211C105.943 359.211 104.151 359.412 102.588 359.527H102.388C101.91 359.553 101.432 359.553 100.954 359.527C99.6889 359.358 98.4676 358.949 97.3556 358.323C94.8336 357.945 92.3489 357.35 89.9293 356.545L89.5135 356.344L89.1264 356.115C88.8785 355.952 88.6437 355.769 88.424 355.57C87.5375 354.836 86.7855 353.953 86.2018 352.961C86.2018 352.961 80.5532 352.717 72.8975 352.129C70.0302 351.914 66.7185 351.627 63.3924 351.298C58.8621 350.853 55.1203 350.724 52.0953 350.251L51.1634 350.079L50.0882 349.835C49.8403 348.079 50.0223 346.288 50.6186 344.617C51.1743 343.207 52.0362 341.938 53.1419 340.902C54.2477 339.865 55.5698 339.087 57.0127 338.624C58.8035 337.966 60.6383 337.434 62.5036 337.033L63.2777 337.363L64.0806 337.707L65.1988 338.194C71.6933 340.99 79.2199 344.373 84.3237 345.764C85.8512 346.166 87.4098 346.439 88.9831 346.581L90.4167 346.696C95.9363 347.068 101.384 346.409 102.832 346.495C104.28 346.581 107.807 349.936 110 352.015C110.498 352.49 111.02 352.94 111.563 353.362L111.735 353.491L111.864 353.606C112.701 354.437 113.279 355.493 113.527 356.645C113.64 357.029 113.717 357.423 113.757 357.821C113.83 357.971 113.883 358.13 113.914 358.294Z" fill="white" stroke="#263238" stroke-linecap="round" stroke-linejoin="round"/>
<path d="M96.7534 354.48C96.7534 354.48 100.008 356.172 101.298 356.76C102.588 357.348 102.474 359.713 102.474 359.713" fill="white"/>
<path d="M96.7534 354.48C96.7534 354.48 100.008 356.172 101.298 356.76C102.588 357.348 102.474 359.713 102.474 359.713" stroke="#263238" stroke-linecap="round" stroke-linejoin="round"/>
<path d="M100.237 352.187C102.285 353.648 104.256 355.212 106.144 356.875C106.42 357.198 106.599 357.593 106.663 358.013C106.726 358.434 106.67 358.864 106.502 359.254" fill="white"/>
<path d="M100.237 352.187C102.285 353.648 104.256 355.212 106.144 356.875C106.42 357.198 106.599 357.593 106.663 358.013C106.726 358.434 106.67 358.864 106.502 359.254" stroke="#263238" stroke-linecap="round" stroke-linejoin="round"/>
<path d="M108.81 354.151C107.114 352.333 105.319 350.61 103.434 348.99L108.81 354.151Z" fill="white"/>
<path d="M108.81 354.151C107.114 352.333 105.319 350.61 103.434 348.99" stroke="#263238" stroke-linecap="round" stroke-linejoin="round"/>
<path d="M101.671 266.44C99.076 271.902 93.9292 279.343 85.6427 278.698C76.8687 277.952 71.937 271.773 69.6575 267.859C72.8115 266.655 76.0085 265.422 78.6321 264.39C78.6321 261.723 78.5461 258.526 78.2594 255.358C78.2594 254.67 78.116 253.924 78.0443 253.279C77.9726 252.634 77.8866 252.175 77.8006 251.645H94.4739C94.4739 251.645 94.3736 252.304 94.2446 253.408C94.1442 254.397 94.0152 255.716 93.9148 257.207C93.7858 259.186 93.6998 261.508 93.7571 263.702C94.56 263.974 95.3771 264.275 96.1943 264.591L97.7713 265.135C98.4021 265.365 99.0186 265.565 99.6781 265.78L101.112 266.211C101.303 266.275 101.49 266.352 101.671 266.44Z" fill="white" stroke="#263238" stroke-linecap="round" stroke-linejoin="round"/>
<path d="M78.0443 253.222C78.0443 253.222 81.1553 261.308 85.6713 262.684C90.1873 264.06 94.2732 253.408 94.2732 253.408C94.2732 253.408 87.9078 260.204 85.5423 259.143C83.1768 258.082 78.073 253.279 78.073 253.279" fill="#263238"/>
<path d="M75.3634 208.564C71.1502 212.356 67.8095 217.018 65.5716 222.226C63.5215 226.527 61.7868 231.473 63.3638 235.975C64.3075 238.21 65.6426 240.259 67.3063 242.025C70.403 245.738 74.747 256.103 77.8437 259.817C78.0444 253.207 72.5105 242.527 73.0983 236.979C73.8102 232.692 75.2195 228.551 77.2702 224.721C79.3557 219.697 82.0833 214.965 85.3847 210.642C87.2627 208.377 93.2984 204.349 87.2054 203.861C83.1625 203.531 78.4171 206.055 75.3634 208.564Z" fill="#263238" stroke="#263238" stroke-linecap="round" stroke-linejoin="round"/>
<path d="M71.4638 231.101C71.4638 231.101 69.3277 226.957 67.0769 230.885C65.4568 233.753 67.7937 238.269 68.7972 239.946C69.1303 240.424 69.5813 240.807 70.1064 241.058C70.6316 241.309 71.2128 241.42 71.7936 241.38L71.4638 231.101Z" fill="white" stroke="#263238" stroke-linecap="round" stroke-linejoin="round"/>
<path d="M99.5348 246.068C98.1648 248.775 96.3799 251.252 94.2446 253.408L92.9543 254.741C90.2877 257.379 87.4061 259.472 85.5137 259.042C83.865 258.713 81.7145 257.021 79.607 254.856C79.0766 254.326 78.5605 253.752 78.0444 253.179C75.7497 250.668 73.7798 247.88 72.1807 244.878C71.7365 243.752 71.4518 242.57 71.3349 241.365C70.9731 237.774 70.8486 234.163 70.9621 230.556C70.9621 229.28 70.9621 228.262 70.9621 227.688C70.9621 225.194 80.3095 216.52 80.3095 216.52C80.5614 216.428 80.8321 216.398 81.098 216.434C82.7057 216.727 84.2551 217.279 85.6857 218.069C91.3486 220.821 99.248 226.283 99.8215 228.362C100.696 231.387 100.366 243.373 99.5348 246.068Z" fill="white" stroke="#263238" stroke-linecap="round" stroke-linejoin="round"/>
<path d="M80.9689 234.57C80.9689 235.574 80.5962 236.391 80.1804 236.391C79.7646 236.391 79.3489 235.602 79.3489 234.57C79.3489 233.538 79.7216 232.721 80.1804 232.721C80.6392 232.721 80.9689 233.566 80.9689 234.57Z" fill="#263238"/>
<path d="M91.6496 232.735C92.1084 232.735 92.4812 233.552 92.4812 234.57C92.4812 235.588 92.1084 236.391 91.6496 236.391C91.1909 236.391 90.8181 235.573 90.8181 234.57C90.8181 233.566 91.1909 232.735 91.6496 232.735Z" fill="#263238"/>
<path d="M75.6357 230.054C75.6357 230.054 77.0694 227.187 82.1445 228.061" stroke="#263238" stroke-linecap="round" stroke-linejoin="round"/>
<path d="M96.3663 230.054C96.3663 230.054 94.9327 227.187 89.8575 228.061" stroke="#263238" stroke-linecap="round" stroke-linejoin="round"/>
<path d="M86.976 241.58C87.4916 241.548 87.9831 241.351 88.3781 241.018C88.7731 240.685 89.0505 240.234 89.1694 239.731C89.1694 239.731 86.3881 235.43 87.234 231.215" stroke="#263238" stroke-linecap="round" stroke-linejoin="round"/>
<path d="M69.6575 221.065C68.5024 222.632 67.6292 224.388 67.0769 226.255" stroke="white" stroke-linecap="round" stroke-linejoin="round"/>
<path d="M81.6428 209.596C81.6428 209.596 80.0514 212.234 73.0409 217.61C72.5891 217.936 72.1582 218.291 71.7506 218.671" stroke="white" stroke-linecap="round" stroke-linejoin="round"/>
<path d="M59.1632 293.651C58.2074 307.28 57.2517 320.919 56.2959 334.567V333.52" fill="#263238"/>
<path d="M59.1632 293.651C58.2074 307.28 57.2517 320.919 56.2959 334.567V333.52" stroke="#263238" stroke-linecap="round" stroke-linejoin="round"/>
<path d="M149.727 248.648C151.023 248.142 152.423 247.961 153.805 248.121C155.187 248.281 156.509 248.777 157.655 249.566C159.941 251.185 161.605 253.537 162.372 256.232C163.286 258.916 163.194 261.84 162.114 264.462C161.555 265.754 160.655 266.87 159.511 267.69C158.368 268.511 157.022 269.005 155.619 269.121C153.528 269.094 151.507 268.362 149.885 267.042C144.523 263.028 141.842 252.046 149.727 248.648Z" fill="white" stroke="#263238" stroke-linecap="round" stroke-linejoin="round"/>
<path d="M161.597 202.872C161.597 203.044 161.597 204.177 161.698 204.377C162.2 206.585 163.26 212.105 160.58 213.223C161.597 216.85 164.092 240.548 163.762 252.634C163.676 256.247 163.045 260.533 159.805 262.082C154.343 264.677 149.153 258.354 149.77 253.408C150.73 246.656 150.401 239.774 151.203 232.95C152.078 225.868 153.684 218.613 151.92 211.689C151.49 211.216 148.738 205.754 147.834 204.248C147.429 203.605 147.111 202.911 146.888 202.184C146.535 199.71 146.363 197.213 146.372 194.715C147.189 193.166 148.25 194.6 148.809 195.618C149.265 196.859 149.422 198.19 149.268 199.503C149.215 199.824 149.26 200.154 149.397 200.449C149.517 200.618 149.68 200.752 149.869 200.838C150.058 200.923 150.266 200.957 150.472 200.937C152.236 200.678 152.164 199.202 152.135 198.069C152.135 194.27 152.135 190.471 152.135 186.7C152.135 186.07 152.336 184.364 152.938 184.306C153.54 184.249 154.444 184.736 154.53 186.758C154.63 189.037 154.63 196.062 154.63 196.062C154.687 196.12 154.757 196.162 154.835 196.185C154.913 196.207 154.995 196.21 155.074 196.191C155.218 196.191 155.275 195.933 155.332 195.79C156.178 192.263 157.038 188.736 157.884 185.209C157.985 184.794 158.601 183.933 159.046 183.933C160.106 183.933 160.135 185.166 160.192 185.525C160.565 187.417 157.913 195.216 157.469 196.994C157.469 197.309 157.469 197.783 157.798 197.696L161.956 189.31C162.149 188.82 162.452 188.381 162.842 188.028C163.233 187.675 163.7 187.417 164.207 187.274C164.277 187.252 164.352 187.252 164.422 187.274C164.496 187.317 164.556 187.382 164.594 187.46C164.995 188.177 164.594 189.166 164.364 189.955C164.135 190.743 161.024 196.535 159.92 198.872C159.762 199.202 159.504 199.947 159.82 200.306C160.135 200.664 160.709 199.976 160.938 199.503C161.64 198.069 162.3 196.722 162.945 195.317C163.146 194.901 163.447 194.313 163.92 194.413C166.716 195.016 162.744 200.879 161.597 202.872Z" fill="white" stroke="#263238" stroke-linecap="round" stroke-linejoin="round"/>
<path d="M153.884 201.639C155.328 202.782 156.581 204.147 157.598 205.682C158.099 206.454 158.434 207.321 158.582 208.229C158.73 209.138 158.688 210.067 158.458 210.958C158.388 211.19 158.297 211.416 158.185 211.632" fill="white"/>
<path d="M153.884 201.639C155.328 202.782 156.581 204.147 157.598 205.682C158.099 206.454 158.434 207.321 158.582 208.229C158.73 209.138 158.688 210.067 158.458 210.958C158.388 211.19 158.297 211.416 158.185 211.632" stroke="#263238" stroke-linecap="round" stroke-linejoin="round"/>
<path d="M113.499 291.199C115.016 294.258 116.037 297.539 116.524 300.919C116.939 304.303 117.068 306.955 114.76 316.46" stroke="#263238" stroke-linecap="round" stroke-linejoin="round"/>
<path d="M81.141 214.37C80.9447 214.956 80.8955 215.581 80.9977 216.191C81.2697 216.958 81.77 217.623 82.4313 218.097C87.0136 222.113 92.1391 225.462 97.6567 228.047C98.3487 228.227 98.9485 228.659 99.3384 229.258C99.7283 229.858 99.8801 230.581 99.7641 231.287V242.369C99.8346 243.512 99.7233 244.659 99.4344 245.767C98.6316 248.347 96.8538 250.426 95.5635 252.806C94.2518 255.063 93.5872 257.637 93.6425 260.247C93.284 257.508 102.861 252.204 105.456 241.423C105.814 239.903 113.269 230.857 108.796 220.233C104.495 210.04 97.7284 205.653 95.4489 205.123C93.9016 204.67 92.2688 204.593 90.6857 204.897C89.1026 205.201 87.6147 205.878 86.3452 206.872C83.84 208.738 82.0126 211.37 81.141 214.37Z" fill="#263238" stroke="#263238" stroke-linecap="round" stroke-linejoin="round"/>
<path d="M90.5314 245.437C89.7142 245.609 88.8827 245.767 88.0512 245.867C85.1839 246.226 82.1159 245.781 80.2378 243.688C80.3812 245.566 81.6714 252.663 85.528 252.863C89.3845 253.064 90.5314 245.437 90.5314 245.437Z" stroke="#263238" stroke-linecap="round" stroke-linejoin="round"/>
<path d="M86.804 210.04C88.4575 213.794 91.0923 217.033 94.431 219.416C96.8538 221.151 99.6208 222.398 101.843 224.377C104.71 227 106.588 231.158 105.484 234.928" stroke="white" stroke-linecap="round" stroke-linejoin="round"/>
<path d="M116.767 267.96C114.005 270.176 112.186 273.358 111.678 276.863C111.183 279.891 111.556 282.997 112.753 285.823" stroke="#263238" stroke-linecap="round" stroke-linejoin="round"/>
<path d="M63.3638 291.615C63.1344 295.371 60.7975 298.625 58.5323 301.65L63.3638 291.615Z" fill="#263238"/>
<path d="M63.3638 291.615C63.1344 295.371 60.7975 298.625 58.5323 301.65" stroke="#263238" stroke-linecap="round" stroke-linejoin="round"/>
<path d="M57.7725 320.331C58.9112 322.237 60.4353 323.885 62.2473 325.169C64.0593 326.453 66.1192 327.344 68.2954 327.786" stroke="#263238" stroke-linecap="round" stroke-linejoin="round"/>
<path d="M112.624 322.567C112.624 322.567 108.767 328.302 95.6638 329.506" stroke="#263238" stroke-linecap="round" stroke-linejoin="round"/>
<path d="M496.484 272.318C496.484 272.318 446.521 287.801 437.116 275.572L438.392 213.194H445.976L454.893 257.136L495.838 249.638C495.838 249.638 501.086 265.895 496.484 272.318Z" fill="white"/>
<path d="M475.438 274.497C472.573 275.636 469.838 277.078 467.28 278.798C470.664 279.873 474.277 278.511 477.66 277.436C482.128 276.064 486.683 274.991 491.294 274.225C491.509 272.949 489.86 270.038 489.215 268.906C488.04 266.927 487.781 266.755 485.803 267.73C482.205 269.537 479.137 272.676 475.438 274.497Z" fill="#92E3A9"/>
<path d="M496.484 272.318C496.484 272.318 446.521 287.801 437.116 275.572L438.392 213.194H445.976L454.893 257.136L495.838 249.638C495.838 249.638 501.086 265.895 496.484 272.318Z" stroke="#263238" stroke-linecap="round" stroke-linejoin="round"/>
<path d="M491.581 273.952L500.355 327.972C500.125 362.982 516.827 357.72 528.425 357.62C541.83 357.505 562.173 344.215 552.195 323.528L556.037 248.648L532.683 246.871C524.985 246.269 493.444 247.258 490.935 251.286C484.427 261.738 491.581 273.952 491.581 273.952Z" fill="white"/>
<path d="M492.957 278.411C498.168 298.123 510.664 315.124 527.924 325.979C526.055 325.684 524.23 325.159 522.49 324.417C520.74 323.663 518.778 323.556 516.956 324.116C516.516 324.274 516.112 324.518 515.766 324.833C515.421 325.148 515.141 325.529 514.942 325.952C514.744 326.376 514.631 326.834 514.61 327.301C514.589 327.768 514.66 328.235 514.82 328.675C515.238 329.346 515.808 329.911 516.483 330.323C519.33 332.324 522.442 333.917 525.73 335.055C522.846 334.759 519.933 334.982 517.128 335.714C516.612 338.209 519.393 340.015 521.587 341.234C525.087 343.297 528.084 346.113 530.361 349.477C522.663 349.494 514.972 349.934 507.322 350.796C506.313 351.022 505.259 350.922 504.311 350.509C503.319 349.77 502.651 348.676 502.448 347.456C500.743 341.491 499.752 335.346 499.494 329.148C499.351 325.664 499.494 322.152 499.036 318.697C498.666 315.973 498.159 313.269 497.516 310.596C495.289 300.255 493.583 289.832 492.398 279.329C491.867 279.372 492.957 278.411 492.957 278.411Z" fill="#92E3A9"/>
<path d="M552.181 274.11C550.247 273.489 548.444 272.517 546.862 271.243C547.306 273.393 550.518 277.106 552.396 278.253C552.783 278.497 553.342 278.698 553.686 278.368C554.03 278.038 554.26 277.192 554.604 276.934L552.181 274.11Z" fill="#92E3A9"/>
<path d="M491.581 273.952L500.355 327.972C500.125 362.982 516.827 357.72 528.425 357.62C541.83 357.505 562.173 344.215 552.195 323.528L556.037 248.648L532.683 246.871C524.985 246.269 493.444 247.258 490.935 251.286C484.427 261.738 491.581 273.952 491.581 273.952Z" stroke="#263238" stroke-linecap="round" stroke-linejoin="round"/>
<path d="M508.655 245.767C506.142 250.368 504.933 255.568 505.157 260.806C505.154 261.263 505.242 261.716 505.415 262.139C506.06 263.415 507.824 263.415 509.243 263.573C514.763 264.275 518.189 270.096 523.393 272.046C523.576 272.158 523.779 272.233 523.991 272.265C524.203 272.297 524.419 272.286 524.626 272.232C524.834 272.179 525.029 272.084 525.199 271.953C525.368 271.822 525.51 271.659 525.615 271.472C527.881 268.605 528.683 264.576 531.78 262.727C533.128 261.924 534.834 261.594 535.766 260.333C536.827 258.899 536.353 256.835 535.837 255.086C534.992 252.218 534.045 249.236 531.852 247.243C529.515 245.419 526.644 244.412 523.68 244.376C519.342 244.021 514.975 244.429 510.777 245.58C510.834 246.125 508.655 245.767 508.655 245.767Z" fill="#92E3A9" stroke="#263238" stroke-linecap="round" stroke-linejoin="round"/>
<path d="M578.044 282.425C574.54 277.323 571.958 271.646 570.417 265.651C569.855 262.649 568.981 259.713 567.808 256.892C566.701 254.713 565.103 252.821 563.14 251.366C561.177 249.91 558.902 248.931 556.496 248.505C555.469 248.279 554.401 248.328 553.399 248.648C551.321 249.437 550.403 251.831 549.987 254.01C549.088 258.691 549.353 263.521 550.762 268.074C551.722 271.171 563.263 293.622 570.833 302.324C570.173 297.937 575.22 283.271 578.044 282.425Z" fill="white"/>
<path d="M555.407 278.024L562.489 291.371C563.507 293.278 564.654 295.314 566.632 296.145C565.387 291.735 564.68 287.191 564.525 282.612C564.602 280.31 564.337 278.01 563.736 275.787C563.449 276.031 563.148 274.999 563.148 274.999C562.833 275.587 562.001 275.601 561.356 275.472C556.725 274.497 553.543 270.368 550.79 266.526C550.432 267.813 550.375 269.165 550.624 270.478C550.872 271.791 551.42 273.029 552.224 274.096C552.224 274.096 555.177 277.579 555.407 278.024Z" fill="#92E3A9"/>
<path d="M578.044 282.425C574.54 277.323 571.958 271.646 570.417 265.651C569.855 262.649 568.981 259.713 567.808 256.892C566.701 254.713 565.103 252.821 563.14 251.366C561.177 249.91 558.902 248.931 556.496 248.505C555.469 248.279 554.401 248.328 553.399 248.648C551.321 249.437 550.403 251.831 549.987 254.01C549.088 258.691 549.353 263.521 550.762 268.074C551.722 271.171 563.263 293.622 570.833 302.324C570.173 297.937 575.22 283.271 578.044 282.425Z" stroke="#263238" stroke-linecap="round" stroke-linejoin="round"/>
<path d="M568.094 298.482C560.381 283.701 564.109 249.638 563.879 244.161L574.058 243.616C575.076 243.616 579.793 272.662 583.004 284.719C585.872 295.701 583.119 306.812 578.044 306.812C573.829 306.812 569.714 301.593 568.094 298.482Z" fill="white" stroke="#263238" stroke-linecap="round" stroke-linejoin="round"/>
<path d="M476.183 260.103C483.351 249.638 497.415 248.806 497.415 248.806" stroke="#263238" stroke-linecap="round" stroke-linejoin="round"/>
<path d="M448.528 265.967C450.696 263.975 452.395 261.527 453.503 258.799L448.528 265.967Z" fill="white"/>
<path d="M448.528 265.967C450.696 263.975 452.395 261.527 453.503 258.799" stroke="#263238" stroke-linecap="round" stroke-linejoin="round"/>
<path d="M501.788 315.428C505.874 322.123 532.339 329.277 542.891 327.743" stroke="#263238" stroke-linecap="round" stroke-linejoin="round"/>
<path d="M509.272 334.323C516.895 335.635 524.709 335.337 532.21 333.449" stroke="#263238" stroke-linecap="round" stroke-linejoin="round"/>
<path d="M544.382 269.365L549.428 276.203C550.116 277.135 551.077 278.182 552.21 277.924" stroke="#263238" stroke-linecap="round" stroke-linejoin="round"/>
<path d="M581.886 528.769C581.442 530.59 581.298 532.755 582.603 534.117C583.908 535.479 585.8 535.45 587.563 535.421L593.628 535.307C595.966 535.423 598.304 535.057 600.495 534.231C601.591 533.805 602.529 533.053 603.183 532.076C603.837 531.099 604.175 529.945 604.151 528.769C604.001 527.86 603.711 526.98 603.29 526.16C602.746 524.984 602.201 523.794 601.671 522.619C594.975 507.867 584.753 516.841 581.886 528.769Z" fill="white" stroke="#263238" stroke-linecap="round" stroke-linejoin="round"/>
<path d="M573.342 511.379C573.554 518.15 572.986 524.923 571.65 531.565C571.335 533.07 571.65 535.35 573.084 535.206C573.646 535.12 574.156 534.829 574.517 534.389C579.786 529.192 583.556 522.669 585.427 515.508C585.709 514.764 585.84 513.972 585.813 513.177C585.786 512.382 585.601 511.6 585.27 510.877C584.877 510.297 584.393 509.784 583.836 509.358C578.976 505.472 572.897 501.616 573.342 511.379Z" fill="white" stroke="#263238" stroke-linecap="round" stroke-linejoin="round"/>
<path d="M556.697 338.094C556.697 338.094 564.252 351.226 565.872 354.28C567.492 357.333 601.714 402.307 608.28 435.052C609.513 441.274 584.266 510.863 584.266 510.863L578.531 507.623C578.531 507.623 582.517 444.155 581.542 438.879C580.567 433.604 555.378 394.666 555.378 394.666C555.378 394.666 541.314 384.329 535.522 372.315L556.697 338.094Z" fill="#263238"/>
<path d="M557.514 370.996C557.514 370.996 553.213 380.573 553.213 381.949C553.213 383.325 576.868 458.076 583.822 475.366C588.218 486.5 592.094 497.893 595.448 509.544C595.448 509.544 598.144 513.085 596.108 516.712C594.072 520.339 585.972 522.719 584.309 519.479C582.646 516.239 566.259 499.408 559.349 482.663C552.439 465.918 542.719 437.933 537.185 427.511C529.937 414.192 523.502 400.447 517.917 386.35C510.963 368.559 503.853 349.377 503.853 349.377C506.741 349.637 509.642 349.718 512.54 349.62C519.365 349.388 526.122 348.191 532.612 346.065C547.722 340.99 554.26 331.27 554.26 331.27C554.26 331.27 558.001 341.406 558.976 343.37L557.514 370.996Z" fill="#263238"/>
<path d="M605.756 441.46C604.275 443.997 602.284 446.199 599.907 447.926" stroke="white" stroke-linecap="round" stroke-linejoin="round"/>
<path d="M607.606 437.288C607.39 437.987 607.132 438.671 606.832 439.338" stroke="white" stroke-linecap="round" stroke-linejoin="round"/>
<path d="M543.851 348.66C547.665 355.226 551.235 364.674 550.661 372.243C550.354 373.618 549.872 374.948 549.228 376.2" stroke="white" stroke-linecap="round" stroke-linejoin="round"/>
<path d="M520.77 355.957C521.185 359.613 521.744 365.692 520.942 369.276C520.263 372.941 518.16 376.189 515.092 378.308" stroke="white" stroke-linecap="round" stroke-linejoin="round"/>
<path d="M553.285 342.122C554.118 343.16 554.794 344.315 555.292 345.549C556.263 347.321 557.597 348.869 559.208 350.089C560.819 351.31 562.67 352.176 564.639 352.631" stroke="white" stroke-linecap="round" stroke-linejoin="round"/>
<path d="M541.113 356.774C546.174 367.842 550.045 378.938 557.901 397.748" stroke="white" stroke-linecap="round" stroke-linejoin="round"/>
<path d="M538.418 351.111C538.848 351.972 539.264 352.832 539.679 353.692" stroke="white" stroke-linecap="round" stroke-linejoin="round"/>
<path d="M580.539 435.783C582.858 440.253 585.808 444.366 589.298 447.997" stroke="white" stroke-linecap="round" stroke-linejoin="round"/>
<path d="M582.933 439.912C584.451 446.926 587.225 453.609 591.119 459.639" stroke="white" stroke-linecap="round" stroke-linejoin="round"/>
<path d="M547.292 440.27C536.124 416.443 524.21 392.802 509.573 356.774" stroke="white" stroke-linecap="round" stroke-linejoin="round"/>
<path d="M549.815 447.195C549.543 446.363 549.256 445.532 548.955 444.686" stroke="white" stroke-linecap="round" stroke-linejoin="round"/>
<path d="M588.424 520.454C585.556 516.712 564.654 487.48 559.464 474.233C556.009 465.402 553.4 459.166 550.862 450.363" stroke="white" stroke-linecap="round" stroke-linejoin="round"/>
<path d="M580.539 464.198L590.474 493.401" stroke="white" stroke-linecap="round" stroke-linejoin="round"/>
<path d="M573.843 243.631L570.833 243.874C567.018 244.552 563.099 244.371 559.363 243.344C556.969 242.756 551.421 241.036 550.761 240.921C549.113 240.569 547.448 240.301 545.772 240.118C540.712 239.817 543.278 237.925 545.385 238.011C548.167 238.14 549.098 238.082 551.235 238.24C550.977 238.097 550.188 237.939 550.174 237.323C550.174 235.817 552.152 235.889 552.152 235.889C552.152 235.889 549.987 234.971 550.288 233.839C550.589 232.706 552.037 232.405 552.955 232.491C552.955 232.491 551.736 231.903 551.794 231.273C552.052 228.835 557.055 228.663 557.055 228.663C555.845 228.123 554.712 227.424 553.686 226.585C553.312 226.182 553.05 225.687 552.926 225.151C552.899 224.895 552.942 224.637 553.049 224.404C553.156 224.17 553.323 223.97 553.534 223.823C553.745 223.677 553.992 223.59 554.248 223.571C554.504 223.552 554.761 223.603 554.991 223.717C556.285 224.579 557.534 225.508 558.733 226.499C560.281 227.602 562.073 228.305 563.707 229.294C565.3 230.657 566.585 232.343 567.478 234.24C567.736 234.642 573.843 243.631 573.843 243.631Z" fill="white" stroke="#263238" stroke-linecap="round" stroke-linejoin="round"/>
<path d="M438.392 213.194V205.295C438.373 201.331 438.953 197.387 440.112 193.596C440.772 191.503 441.546 189.682 442.249 189.41C443.553 188.937 444.127 194.227 444.127 194.227C443.146 189.985 442.518 185.67 442.249 181.324C442.249 176.722 448.442 195.833 448.442 195.833L445.976 213.194H438.392Z" fill="white" stroke="#263238" stroke-linecap="round" stroke-linejoin="round"/>
<path d="M445.876 200.349C446.625 199.771 447.184 198.982 447.481 198.084L445.876 200.349Z" fill="white"/>
<path d="M445.876 200.349C446.625 199.771 447.184 198.982 447.481 198.084" stroke="#263238" stroke-linecap="round" stroke-linejoin="round"/>
<path d="M505.917 229.667C508.595 234.175 510.075 239.293 510.218 244.534C510.476 253.25 520.569 265.451 523.45 266.039C526.332 266.626 528.999 252.276 528.87 247.932C528.741 243.588 527.135 231.588 527.135 231.588C527.135 231.588 513.329 221.151 505.917 229.667Z" fill="white" stroke="#263238" stroke-linecap="round" stroke-linejoin="round"/>
<path d="M509.974 241.208C509.974 241.208 523.207 259.257 528.397 240.907C533.586 222.556 513.845 245.924 509.974 241.208Z" fill="#263238"/>
<path d="M532.31 228.233C531.608 238.943 526.719 244.964 521.085 246.025C515.938 246.971 508.412 241.724 504.655 233.939C504.369 233.753 499.795 230.584 498.706 229.81C498.137 229.412 497.672 228.882 497.353 228.265C497.033 227.649 496.868 226.964 496.871 226.269C496.907 225.603 497.142 224.962 497.546 224.431C497.95 223.899 498.504 223.501 499.136 223.287H499.265C499.91 223.147 500.583 223.196 501.2 223.431C500.254 219.775 499.48 216.062 498.892 212.32C499.164 203.718 502.017 196.693 511.193 196.005C520.368 195.317 528.038 200.449 528.397 204.148C528.655 207.015 529.587 214.599 530.418 222.441C530.647 224.477 532.468 225.825 532.31 228.233Z" fill="white" stroke="#263238" stroke-linecap="round" stroke-linejoin="round"/>
<path d="M528.397 215.846C528.397 215.846 522.49 213.137 523.493 221.94C523.694 223.674 526.92 226.24 526.92 226.24C526.92 226.24 526.088 228.835 524.554 228.835" fill="white"/>
<path d="M528.397 215.846C528.397 215.846 522.49 213.137 523.493 221.94C523.694 223.674 526.92 226.24 526.92 226.24C526.92 226.24 526.088 228.835 524.554 228.835" stroke="#263238" stroke-linecap="round" stroke-linejoin="round"/>
<path d="M516.985 218.857C516.985 218.857 513.974 217.022 511.91 218.155C510.833 218.623 509.916 219.395 509.272 220.377" fill="white"/>
<path d="M516.985 218.857C516.985 218.857 513.974 217.022 511.91 218.155C510.833 218.623 509.916 219.395 509.272 220.377" stroke="#263238" stroke-linecap="round" stroke-linejoin="round"/>
<path d="M515.265 223.932C515.494 224.993 515.265 225.939 514.648 226.068C514.032 226.197 513.429 225.423 513.214 224.362C512.999 223.301 513.214 222.355 513.845 222.226C514.476 222.097 515.049 222.857 515.265 223.932Z" fill="#263238"/>
<path d="M526.906 220.836C527.135 221.896 526.906 222.843 526.289 222.972C525.673 223.101 525.071 222.327 524.856 221.28C524.64 220.233 524.856 219.259 525.472 219.144C526.088 219.029 526.691 219.789 526.906 220.836Z" fill="#263238"/>
<path d="M498.204 201.209C497.155 202.236 496.428 203.546 496.111 204.979C495.252 208.011 495.004 211.182 495.38 214.31C495.757 217.438 496.751 220.46 498.304 223.201C499.26 223.084 500.228 223.123 501.172 223.316C502.175 223.574 503.465 225.294 503.938 226.183C504.353 227.131 504.591 228.146 504.641 229.179C504.412 226.456 504.197 223.746 503.967 221.022C503.813 219.933 503.862 218.825 504.111 217.753C504.813 215.517 504.039 210.241 504.24 205.524C510.189 212.793 518.834 211.503 521.701 211.259C526.002 210.9 529.673 206.499 529.443 203.359C529.214 200.22 528.368 192.134 514.189 191.302C511.065 190.97 507.916 191.627 505.186 193.181C504.32 193.751 503.585 194.498 503.029 195.373C502.473 196.247 502.109 197.23 501.96 198.256C501.759 199.575 502.261 199.689 501.258 200.334C500.254 200.98 499.193 200.363 498.204 201.209Z" fill="#263238" stroke="#263238" stroke-linecap="round" stroke-linejoin="round"/>
<path d="M516.985 233.882C516.985 233.882 519.092 236.204 523.494 234.67L516.985 233.882Z" fill="white"/>
<path d="M516.985 233.882C516.985 233.882 519.092 236.204 523.494 234.67" stroke="#263238" stroke-linecap="round" stroke-linejoin="round"/>
</svg>
