<svg width="586" height="551" viewBox="0 0 586 551" fill="none" xmlns="http://www.w3.org/2000/svg">
<path d="M564.809 319.339H0" stroke="#263238" stroke-width="1.08162" stroke-miterlimit="10"/>
<path d="M103.601 154.73C103.601 150.805 105.414 147.922 109.496 147.922C113.579 147.922 115.463 150.777 115.463 154.73V168.519C115.463 172.445 113.65 175.328 109.496 175.328C105.343 175.328 103.601 172.473 103.601 168.519V154.73ZM105.371 168.633C105.371 171.488 106.527 173.715 109.496 173.715C112.465 173.715 113.693 171.56 113.693 168.633V154.616C113.693 151.761 112.494 149.535 109.496 149.535C106.499 149.535 105.371 151.69 105.371 154.616V168.633Z" fill="#263238"/>
<path d="M118.275 154.73C118.275 150.805 120.088 147.922 124.156 147.922C128.224 147.922 130.122 150.777 130.122 154.73V168.519C130.122 172.445 128.324 175.328 124.156 175.328C119.988 175.328 118.275 172.473 118.275 168.519V154.73ZM120.045 168.633C120.045 171.488 121.201 173.715 124.156 173.715C127.111 173.715 128.352 171.56 128.352 168.633V154.616C128.352 151.761 127.168 149.535 124.156 149.535C121.144 149.535 120.045 151.69 120.045 154.616V168.633Z" fill="#263238"/>
<path d="M138.629 148.15C142.798 148.15 144.41 150.777 144.41 154.702V157.628C144.41 161.91 142.441 164.009 138.173 164.009H134.818V175.1H133.048V148.15H138.629ZM138.173 162.424C141.284 162.424 142.64 160.997 142.64 157.771V154.616C142.64 151.69 141.641 149.806 138.629 149.806H134.818V162.424H138.173Z" fill="#263238"/>
<path d="M158.427 154.659V155.23H156.729V154.545C156.729 151.69 155.658 149.535 152.732 149.535C149.806 149.535 148.721 151.662 148.721 154.502C148.721 161.054 158.456 161.168 158.456 168.591C158.456 172.473 156.772 175.328 152.646 175.328C148.521 175.328 146.837 172.473 146.837 168.591V167.163H148.536V168.591C148.536 171.445 149.649 173.558 152.618 173.558C155.587 173.558 156.686 171.474 156.686 168.591C156.686 162.124 146.951 162.01 146.951 154.502C146.951 150.463 148.721 147.85 152.661 147.808C156.6 147.765 158.427 150.777 158.427 154.659Z" fill="#263238"/>
<path d="M162.81 171.717V175.099H161.083V171.717H162.81Z" fill="#263238"/>
<path d="M167.663 171.717V175.099H165.936V171.717H167.663Z" fill="#263238"/>
<path d="M172.473 171.717V175.099H170.746V171.717H172.473Z" fill="#263238"/>
<path d="M40.4241 267.253L70.7564 195.526H88.9558V267.253H96.8351V282.412H88.9558V301.667H72.5692V282.412H40.4241V267.253ZM72.5692 267.253V227.371L55.7544 267.253H72.5692Z" fill="#263238"/>
<path d="M103.059 220.991C103.059 204.019 112.008 194.312 128.381 194.312C144.753 194.312 153.703 204.019 153.703 220.991V276.188C153.703 293.174 144.753 302.881 128.381 302.881C112.008 302.881 103.059 293.174 103.059 276.188V220.991ZM119.731 277.259C119.731 284.838 123.071 287.722 128.381 287.722C133.691 287.722 137.031 284.867 137.031 277.259V219.934C137.031 212.355 133.691 209.471 128.381 209.471C123.071 209.471 119.731 212.326 119.731 219.934V277.259Z" fill="#263238"/>
<path d="M160.526 267.253L190.858 195.526H209.058V267.253H216.937V282.412H209.058V301.667H192.671V282.412H160.526V267.253ZM192.671 267.253V227.371L175.842 267.253H192.671Z" fill="#263238"/>
<path d="M47.7323 327.161C51.8147 327.161 53.4419 329.73 53.4419 333.57V336.425C53.4419 340.607 51.515 342.691 47.3327 342.691H44.0496V353.539H42.2654V327.161H47.7323ZM47.2898 341.121C50.3445 341.121 51.6577 339.693 51.6577 336.553V333.456C51.6577 330.601 50.6871 328.745 47.7323 328.745H44.0068V341.121H47.2898Z" fill="#263238"/>
<path d="M58.0383 347.658L56.7108 353.496H55.1406L60.8502 327.061H63.3767L69.2576 353.496H67.5733L66.2601 347.658H58.0383ZM58.2952 346.145H65.9889L62.1064 329.016L58.2952 346.145Z" fill="#263238"/>
<path d="M83.2034 333.613V335.568H81.5333V333.498C81.5333 330.644 80.4485 328.517 77.5366 328.517C74.6247 328.517 73.5399 330.672 73.5399 333.498V347.23C73.5399 350.085 74.639 352.169 77.5366 352.169C80.4342 352.169 81.5333 350.056 81.5333 347.23V341.52H78.0362V339.95H83.2034V347.087C83.2034 350.898 81.5333 353.753 77.4938 353.753C73.4542 353.753 71.7842 350.898 71.7842 347.087V333.584C71.7842 329.773 73.44 326.904 77.4938 326.904C81.5476 326.904 83.2034 329.801 83.2034 333.613Z" fill="#263238"/>
<path d="M95.0366 339.379V340.964H87.8996V351.941H96.564V353.511H86.1582V327.161H96.564V328.745H87.8996V339.379H95.0366Z" fill="#263238"/>
<path d="M106.77 353.554H105.185V327.161H107.455L115.377 349.443V327.161H116.961V353.554H115.034L106.77 330.03V353.554Z" fill="#263238"/>
<path d="M119.831 333.613C119.831 329.759 121.601 326.932 125.54 326.932C129.48 326.932 131.378 329.787 131.378 333.613V347.116C131.378 350.956 129.608 353.782 125.54 353.782C121.472 353.782 119.831 350.927 119.831 347.116V333.613ZM121.558 347.23C121.558 350.085 122.685 352.198 125.597 352.198C128.509 352.198 129.708 350.085 129.708 347.23V333.499C129.708 330.644 128.538 328.517 125.597 328.517C122.657 328.517 121.558 330.629 121.558 333.499V347.23Z" fill="#263238"/>
<path d="M138.758 353.554V328.745H133.405V327.161H145.881V328.745H140.499V353.554H138.758Z" fill="#263238"/>
<path d="M162.453 340.022V341.606H155.672V353.554H153.945V327.161H163.937V328.745H155.672V340.022H162.453Z" fill="#263238"/>
<path d="M166.45 333.613C166.45 329.759 168.22 326.932 172.159 326.932C176.099 326.932 178.012 329.787 178.012 333.613V347.116C178.012 350.956 176.227 353.782 172.159 353.782C168.091 353.782 166.45 350.927 166.45 347.116V333.613ZM168.177 347.23C168.177 350.085 169.319 352.198 172.216 352.198C175.114 352.198 176.327 350.085 176.327 347.23V333.499C176.327 330.644 175.157 328.517 172.216 328.517C169.276 328.517 168.177 330.629 168.177 333.499V347.23Z" fill="#263238"/>
<path d="M182.593 347.187C182.593 350.042 183.65 352.197 186.547 352.197C189.445 352.197 190.515 350.014 190.515 347.187V327.204H192.128V347.187C192.128 350.956 190.544 353.853 186.519 353.853C182.493 353.853 180.809 350.998 180.809 347.187V327.204H182.551L182.593 347.187Z" fill="#263238"/>
<path d="M196.696 353.554H195.112V327.161H197.381L205.303 349.443V327.161H206.888V353.554H204.961L196.696 330.03V353.554Z" fill="#263238"/>
<path d="M215.624 327.161C219.706 327.161 221.476 329.844 221.476 333.727V347.002C221.476 350.884 219.706 353.554 215.624 353.554H209.914V327.161H215.624ZM215.624 351.941C218.564 351.941 219.763 349.928 219.763 347.03V333.598C219.763 330.744 218.521 328.702 215.624 328.702H211.584V351.941H215.624Z" fill="#263238"/>
<path d="M532.022 32.4021C532.022 32.4021 532.022 25.3507 522.159 15.5016C512.295 5.65252 505.958 0 505.958 0C505.958 0 501.033 16.201 510.24 26.0644C516.964 32.9835 524.249 39.3334 532.022 45.0489V32.4021Z" fill="#92E3A9"/>
<path d="M517.705 76.4517C517.705 76.4517 517.705 69.4004 507.856 59.5513C498.007 49.7022 491.655 44.0497 491.655 44.0497C491.655 44.0497 486.73 60.2507 495.937 70.1141C502.671 77.0473 509.971 83.407 517.762 89.1271L517.705 76.4517Z" fill="#92E3A9"/>
<path d="M531.394 44.3923C531.394 44.3923 532.15 37.3837 542.984 28.6195C553.818 19.8552 560.727 14.9307 560.727 14.9307C560.727 14.9307 563.91 31.5599 553.776 40.3955C546.348 46.5789 538.417 52.1318 530.066 56.9962L531.394 44.3923Z" fill="#92E3A9"/>
<path d="M514.108 96.3354C514.108 96.3354 515.536 89.4411 527.297 81.8615C539.059 74.282 546.382 70.114 546.382 70.114C546.382 70.114 547.809 86.9859 536.79 94.7082C528.75 100.08 520.275 104.768 511.453 108.725L514.108 96.3354Z" fill="#92E3A9"/>
<path d="M517.363 152.961C517.363 152.961 517.363 145.909 527.226 136.06C537.089 126.211 543.413 120.558 543.413 120.558C543.413 120.558 548.352 136.76 539.131 146.623C532.397 153.556 525.096 159.916 517.306 165.636L517.363 152.961Z" fill="#92E3A9"/>
<path d="M517.205 166.778C517.205 166.778 518.205 159.812 509.84 148.65C501.476 137.487 496.009 131.007 496.009 131.007C496.009 131.007 488.872 146.337 496.494 157.4C502.168 165.22 508.485 172.554 515.378 179.325L517.205 166.778Z" fill="#92E3A9"/>
<path d="M507.485 207.773C507.485 207.773 507.485 200.736 517.334 190.872C527.183 181.009 533.535 175.371 533.535 175.371C533.535 175.371 538.46 191.572 529.253 201.435C522.523 208.373 515.222 214.733 507.428 220.448L507.485 207.773Z" fill="#92E3A9"/>
<path d="M514.065 244.885C514.065 244.885 512.281 238.062 519.318 226.029C526.355 213.996 531.08 206.945 531.08 206.945C531.08 206.945 539.944 221.362 533.592 233.223C528.83 241.635 523.378 249.637 517.291 257.147L514.065 244.885Z" fill="#92E3A9"/>
<path d="M532.907 30.5892C532.412 37.9227 531.512 45.2232 530.209 52.4571C526.313 72.5977 516.578 85.5871 512.681 103.772C508.784 121.957 519.961 145.381 516.963 168.748C513.966 192.114 504.887 205.089 507.485 220.691C510.083 236.292 523.715 278.486 523.715 278.486" stroke="#263238" stroke-width="1.08162" stroke-linecap="round" stroke-linejoin="round"/>
<path d="M531.308 49.0742L541.928 40.9237" stroke="#263238" stroke-width="1.08162" stroke-linecap="round" stroke-linejoin="round"/>
<path d="M531.794 39.6819L527.354 31.774" stroke="#263238" stroke-width="1.08162" stroke-linecap="round" stroke-linejoin="round"/>
<path d="M513.266 102.93C513.266 102.93 522.159 96.2641 531.309 89.5981" stroke="#263238" stroke-width="1.08162" stroke-linecap="round" stroke-linejoin="round"/>
<path d="M517.705 89.0557C517.705 89.0557 510.297 74.5247 501.904 64.8898" stroke="#263238" stroke-width="1.08162" stroke-linecap="round" stroke-linejoin="round"/>
<path d="M517.719 162.981C522.808 153.618 529.232 145.044 536.789 137.53" stroke="#263238" stroke-width="1.08162" stroke-linecap="round" stroke-linejoin="round"/>
<path d="M515.978 172.859C513.281 166.506 510.059 160.389 506.343 154.574C501.162 146.908 500.419 145.923 500.419 145.923" stroke="#263238" stroke-width="1.08162" stroke-linecap="round" stroke-linejoin="round"/>
<path d="M507.485 220.691C509.733 215.092 512.41 209.676 515.493 204.49C518.568 199.68 522.04 195.135 525.87 190.901" stroke="#263238" stroke-width="1.08162" stroke-linecap="round" stroke-linejoin="round"/>
<path d="M517.277 257.147C516.762 251.803 517.678 246.418 519.932 241.545C523.643 234.408 527.84 224.987 529.567 221.29" stroke="#263238" stroke-width="1.08162" stroke-linecap="round" stroke-linejoin="round"/>
<path d="M467.461 126.411C467.461 126.411 466.69 122 471.814 114.749C476.939 107.498 480.279 103.33 480.279 103.33C480.279 103.33 485.132 112.95 480.464 120.13C476.995 125.207 473.104 129.982 468.831 134.404L467.461 126.411Z" fill="#92E3A9"/>
<path d="M481.206 152.504C481.206 152.504 480.435 148.079 485.56 140.828C490.684 133.576 494.024 129.408 494.024 129.408C494.024 129.408 498.878 139.029 494.21 146.209C490.741 151.286 486.849 156.061 482.577 160.483L481.206 152.504Z" fill="#92E3A9"/>
<path d="M469.145 133.933C469.145 133.933 467.917 129.651 460.167 125.297C452.416 120.944 447.563 118.631 447.563 118.631C447.563 118.631 447.363 129.408 454.7 133.848C460.029 136.919 465.606 139.541 471.372 141.684L469.145 133.933Z" fill="#92E3A9"/>
<path d="M485.631 164.622C485.631 164.622 483.961 160.469 475.797 156.986C467.632 153.503 462.55 151.69 462.55 151.69C462.55 151.69 463.492 162.424 471.229 166.064C476.856 168.556 482.681 170.576 488.643 172.102L485.631 164.622Z" fill="#92E3A9"/>
<path d="M489.685 200.479C489.685 200.479 488.914 196.068 481.663 190.958C474.412 185.848 469.83 182.993 469.83 182.993C469.83 182.993 468.488 193.684 475.297 198.88C480.259 202.49 485.51 205.684 490.998 208.43L489.685 200.479Z" fill="#92E3A9"/>
<path d="M491.341 209.2C491.341 209.2 489.913 204.918 493.982 197.039C498.05 189.16 500.747 184.478 500.747 184.478C500.747 184.478 506.914 193.313 503.303 201.078C500.594 206.6 497.428 211.886 493.839 216.88L491.341 209.2Z" fill="#92E3A9"/>
<path d="M503.717 244.757C503.717 244.757 504.231 240.303 511.182 234.765C518.134 229.227 522.601 226.201 522.601 226.201C522.601 226.201 524.543 236.806 518.034 242.373C513.277 246.27 508.201 249.76 502.86 252.807L503.717 244.757Z" fill="#92E3A9"/>
<path d="M501.89 233.766C501.89 233.766 501.119 229.355 493.868 224.231C486.616 219.106 482.034 216.28 482.034 216.28C482.034 216.28 480.693 226.971 487.501 232.167C492.463 235.777 497.715 238.971 503.203 241.716L501.89 233.766Z" fill="#92E3A9"/>
<path d="M501.79 257.732C501.79 257.732 502.161 253.264 496.451 246.484C490.742 239.704 487.016 235.779 487.016 235.779C487.016 235.779 483.005 245.77 488.286 252.536C492.196 257.294 496.493 261.72 501.133 265.768L501.79 257.732Z" fill="#92E3A9"/>
<path d="M466.704 125.44C467.813 129.984 469.172 134.463 470.772 138.858C475.397 151.062 482.919 158.142 487.344 169.133C491.769 180.124 487.344 196.025 491.698 210.342C496.052 224.659 503.231 231.753 503.288 241.873C503.346 251.994 499.377 279.9 499.377 279.9" stroke="#263238" stroke-width="1.08162" stroke-linecap="round" stroke-linejoin="round"/>
<path d="M469.716 136.845L462.179 132.891" stroke="#263238" stroke-width="1.08162" stroke-linecap="round" stroke-linejoin="round"/>
<path d="M468.388 131.021L470.315 125.583" stroke="#263238" stroke-width="1.08162" stroke-linecap="round" stroke-linejoin="round"/>
<path d="M486.83 168.676C486.83 168.676 480.535 165.45 474.069 162.267" stroke="#263238" stroke-width="1.08162" stroke-linecap="round" stroke-linejoin="round"/>
<path d="M482.548 160.44C484.405 154.571 486.859 148.908 489.871 143.54" stroke="#263238" stroke-width="1.08162" stroke-linecap="round" stroke-linejoin="round"/>
<path d="M490.613 206.802C486.407 201.489 481.455 196.811 475.911 192.914" stroke="#263238" stroke-width="1.08162" stroke-linecap="round" stroke-linejoin="round"/>
<path d="M492.769 212.812C493.768 208.538 495.124 204.355 496.822 200.308C499.249 194.941 499.606 194.241 499.606 194.241" stroke="#263238" stroke-width="1.08162" stroke-linecap="round" stroke-linejoin="round"/>
<path d="M502.946 249.51C505.397 246.467 508.115 243.648 511.068 241.088C512.943 239.704 514.704 238.172 516.335 236.506" stroke="#263238" stroke-width="1.08162" stroke-linecap="round" stroke-linejoin="round"/>
<path d="M503.288 241.873C501.268 238.612 499.001 235.511 496.508 232.595C494.056 229.916 491.387 227.443 488.529 225.201" stroke="#263238" stroke-width="1.08162" stroke-linecap="round" stroke-linejoin="round"/>
<path d="M501.104 265.811C500.851 262.403 499.688 259.125 497.736 256.319C494.638 252.222 490.984 246.798 489.5 244.657" stroke="#263238" stroke-width="1.08162" stroke-linecap="round" stroke-linejoin="round"/>
<path d="M533.193 327.96H489.785C488.7 327.956 487.66 327.524 486.893 326.756C486.125 325.989 485.692 324.949 485.689 323.864L479.237 275.018H543.727L537.289 323.864C537.286 324.949 536.853 325.989 536.085 326.756C535.318 327.524 534.278 327.956 533.193 327.96Z" fill="#263238"/>
<path d="M543.17 283.425H479.237C477.9 283.425 476.619 282.894 475.674 281.949C474.729 281.005 474.198 279.723 474.198 278.387C474.196 277.724 474.325 277.067 474.577 276.454C474.83 275.841 475.2 275.284 475.669 274.814C476.137 274.345 476.693 273.973 477.305 273.718C477.917 273.464 478.574 273.333 479.237 273.333H543.17C543.834 273.333 544.491 273.464 545.104 273.718C545.717 273.972 546.274 274.344 546.743 274.813C547.212 275.283 547.584 275.84 547.838 276.453C548.092 277.066 548.223 277.723 548.223 278.387C548.219 279.724 547.685 281.006 546.738 281.95C545.791 282.895 544.508 283.425 543.17 283.425Z" fill="#263238"/>
<path d="M481.577 385.185C480.435 385.187 479.311 384.898 478.312 384.346C477.312 383.793 476.47 382.995 475.864 382.026C475.258 381.058 474.91 379.951 474.85 378.811C474.791 377.67 475.023 376.533 475.525 375.507C476.827 372.901 477.083 369.896 476.242 367.107C475.401 364.319 473.526 361.957 471 360.505C460.923 354.053 437.485 353.025 429.277 353.154H429.163C427.376 353.171 425.656 352.477 424.38 351.226C423.105 349.975 422.379 348.268 422.362 346.481C422.345 344.694 423.038 342.973 424.29 341.698C425.541 340.422 427.248 339.696 429.035 339.679C432.475 339.608 462.95 339.365 478.252 349.157C493.339 358.821 490.998 374.436 487.644 381.359C487.094 382.502 486.234 383.468 485.161 384.144C484.088 384.821 482.846 385.181 481.577 385.185Z" fill="#263238"/>
<path d="M512.638 420.727L511.153 425.766L488.672 388.796L488.086 380.817L512.638 420.727Z" fill="white" stroke="#263238" stroke-width="1.08162" stroke-linecap="round" stroke-linejoin="round"/>
<path d="M511.153 425.766L518.176 422.297L519.432 417.487L512.638 420.727L511.153 425.766Z" fill="white" stroke="#263238" stroke-width="1.08162" stroke-linecap="round" stroke-linejoin="round"/>
<path d="M485.132 376.678L511.153 375.778L519.432 417.487L512.638 420.727L485.132 376.678Z" fill="white" stroke="#263238" stroke-width="1.08162" stroke-linecap="round" stroke-linejoin="round"/>
<path d="M481.577 378.448L507.599 422.212L499.034 426.351L460.58 395.005L481.577 378.448Z" fill="white" stroke="#263238" stroke-width="1.08162" stroke-linecap="round" stroke-linejoin="round"/>
<path d="M499.034 426.351L497.85 430.79L459.11 400.03L460.58 395.005L499.034 426.351Z" fill="white" stroke="#263238" stroke-width="1.08162" stroke-linecap="round" stroke-linejoin="round"/>
<path d="M499.034 426.351L507.599 422.212L506.428 426.651L497.85 430.79L499.034 426.351Z" fill="white" stroke="#263238" stroke-width="1.08162" stroke-linecap="round" stroke-linejoin="round"/>
<path d="M496.014 394.23C501.164 389.08 501.164 380.729 496.014 375.578C490.863 370.427 482.512 370.427 477.361 375.578C472.211 380.729 472.211 389.08 477.361 394.23C482.512 399.381 490.863 399.381 496.014 394.23Z" fill="#92E3A9" stroke="#263238" stroke-width="1.08162" stroke-linecap="round" stroke-linejoin="round"/>
<path d="M208.729 420.727L210.214 425.766L232.681 388.796L233.28 380.817L208.729 420.727Z" fill="white" stroke="#263238" stroke-width="1.08162" stroke-linecap="round" stroke-linejoin="round"/>
<path d="M210.214 425.766L203.191 422.297L201.935 417.487L208.729 420.727L210.214 425.766Z" fill="white" stroke="#263238" stroke-width="1.08162" stroke-linecap="round" stroke-linejoin="round"/>
<path d="M236.235 376.678L210.214 375.778L201.935 417.487L208.729 420.727L236.235 376.678Z" fill="white" stroke="#263238" stroke-width="1.08162" stroke-linecap="round" stroke-linejoin="round"/>
<path d="M239.79 378.448L213.754 422.212L222.333 426.351L260.773 395.005L239.79 378.448Z" fill="white" stroke="#263238" stroke-width="1.08162" stroke-linecap="round" stroke-linejoin="round"/>
<path d="M222.333 426.351L223.517 430.79L262.257 400.03L260.773 395.005L222.333 426.351Z" fill="white" stroke="#263238" stroke-width="1.08162" stroke-linecap="round" stroke-linejoin="round"/>
<path d="M222.333 426.351L213.754 422.212L214.939 426.651L223.517 430.79L222.333 426.351Z" fill="white" stroke="#263238" stroke-width="1.08162" stroke-linecap="round" stroke-linejoin="round"/>
<path d="M235.522 389.667C234.128 389.673 232.767 389.246 231.626 388.446C230.485 387.646 229.62 386.512 229.151 385.2C228.681 383.888 228.63 382.463 229.004 381.121C229.378 379.778 230.159 378.585 231.24 377.705C284.796 334.127 273.89 269.137 273.776 268.48C273.51 266.742 273.933 264.969 274.956 263.539C275.978 262.109 277.52 261.136 279.25 260.826C280.981 260.517 282.764 260.897 284.219 261.884C285.674 262.871 286.685 264.388 287.037 266.111C287.565 269.094 299.398 339.622 239.747 388.154C238.554 389.128 237.062 389.663 235.522 389.667Z" fill="#263238"/>
<path d="M313.76 254.124C316.081 239.742 306.304 226.201 291.922 223.879C277.54 221.557 263.999 231.334 261.677 245.716C259.355 260.099 269.132 273.64 283.514 275.961C297.897 278.283 311.438 268.506 313.76 254.124Z" fill="#ADADAD" stroke="#263238" stroke-width="1.08162" stroke-linecap="round" stroke-linejoin="round"/>
<path d="M243.996 394.226C249.147 389.075 249.147 380.724 243.996 375.573C238.845 370.423 230.494 370.423 225.344 375.573C220.193 380.724 220.193 389.075 225.344 394.226C230.494 399.377 238.845 399.377 243.996 394.226Z" fill="#92E3A9" stroke="#263238" stroke-width="1.08162" stroke-linecap="round" stroke-linejoin="round"/>
<path d="M358.35 358.55C381.471 358.55 400.215 341.065 400.215 319.496C400.215 297.927 381.471 280.442 358.35 280.442C335.228 280.442 316.484 297.927 316.484 319.496C316.484 341.065 335.228 358.55 358.35 358.55Z" fill="#ADADAD" stroke="#263238" stroke-width="1.08162" stroke-linecap="round" stroke-linejoin="round"/>
<path d="M336.539 302.809L340.45 318.068C341.606 321.844 344.055 325.092 347.368 327.24C350.681 329.389 354.645 330.301 358.564 329.816C362.478 329.327 366.094 327.472 368.776 324.579C371.457 321.686 373.032 317.94 373.223 314L373.994 298.613L336.539 302.809Z" fill="#263238" stroke="#263238" stroke-width="1.08162" stroke-linecap="round" stroke-linejoin="round"/>
<path d="M419.072 226.029C415.121 226.087 411.185 225.548 407.396 224.431L408.48 221.248C408.666 221.248 427.408 227.343 446.492 213.383L448.476 216.109C439.998 222.495 429.685 225.974 419.072 226.029Z" fill="#263238"/>
<path d="M440.111 251.352C424.667 228.784 407.096 230.483 406.924 230.497L406.553 227.157C407.353 227.071 426.323 225.23 442.881 249.453L440.111 251.352Z" fill="#263238"/>
<path d="M436.2 267.296C416.217 261.144 404.212 234.537 403.698 233.409L406.781 231.982C406.896 232.253 418.686 258.317 437.199 264.013L436.2 267.296Z" fill="#263238"/>
<path d="M446.592 215.652L451.987 212.055" stroke="#263238" stroke-width="1.08162" stroke-miterlimit="10"/>
<path d="M439.997 247.412L443.594 254.592" stroke="#263238" stroke-width="1.08162" stroke-miterlimit="10"/>
<path d="M433.702 264.484C436.546 265.207 439.462 265.609 442.395 265.683" stroke="#263238" stroke-width="1.08162" stroke-miterlimit="10"/>
<path d="M282.184 221.076L287.165 255.919L411.135 243.244L410.678 207.045L282.184 221.076Z" fill="white" stroke="#263238" stroke-width="1.08162" stroke-linecap="round" stroke-linejoin="round"/>
<path d="M287.165 255.919L309.333 312.016L404.797 302.51L411.135 243.244L287.165 255.919Z" fill="#E5E5E5" stroke="#263238" stroke-width="1.08162" stroke-linecap="round" stroke-linejoin="round"/>
<path d="M317.069 270.579L325.777 296.272C326.398 298.126 327.641 299.707 329.296 300.748C330.951 301.789 332.915 302.225 334.855 301.981L373.095 297.813C375.025 297.579 376.816 296.687 378.167 295.289C379.519 293.891 380.348 292.071 380.517 290.134L382.887 263.113C382.967 262.229 382.849 261.337 382.541 260.504C382.234 259.67 381.744 258.916 381.109 258.295C380.473 257.675 379.707 257.204 378.867 256.916C378.026 256.628 377.132 256.532 376.25 256.633L322.108 262.685C321.215 262.783 320.355 263.08 319.592 263.554C318.829 264.029 318.182 264.668 317.698 265.425C317.215 266.183 316.908 267.039 316.799 267.93C316.69 268.822 316.782 269.727 317.069 270.579Z" fill="#263238"/>
<path d="M317.069 284.696L332.856 283.297L337.867 269.694L349.657 290.891L355.652 275.089L358.65 280.099L387.255 276.688" stroke="white" stroke-width="1.08162" stroke-linecap="round" stroke-linejoin="round"/>
<path d="M317.069 270.579L325.777 296.272C326.398 298.126 327.641 299.707 329.296 300.748C330.951 301.789 332.915 302.225 334.855 301.981L373.095 297.813C375.025 297.579 376.816 296.687 378.167 295.289C379.519 293.891 380.348 292.071 380.517 290.134L382.887 263.113C382.967 262.229 382.849 261.337 382.541 260.504C382.234 259.67 381.744 258.916 381.109 258.295C380.473 257.675 379.707 257.204 378.867 256.916C378.026 256.628 377.132 256.532 376.25 256.633L322.108 262.685C321.215 262.783 320.355 263.08 319.592 263.554C318.829 264.029 318.182 264.668 317.698 265.425C317.215 266.183 316.908 267.039 316.799 267.93C316.69 268.822 316.782 269.727 317.069 270.579V270.579Z" stroke="#263238" stroke-width="1.08162" stroke-linecap="round" stroke-linejoin="round"/>
<path d="M396.747 266.553C400.578 266.553 403.684 263.447 403.684 259.616C403.684 255.785 400.578 252.679 396.747 252.679C392.915 252.679 389.81 255.785 389.81 259.616C389.81 263.447 392.915 266.553 396.747 266.553Z" fill="white" stroke="#263238" stroke-width="1.08162" stroke-linecap="round" stroke-linejoin="round"/>
<path d="M402.399 281.313C402.399 282.6 402.018 283.858 401.302 284.929C400.587 285.999 399.571 286.833 398.381 287.326C397.192 287.819 395.883 287.948 394.62 287.697C393.358 287.445 392.198 286.825 391.288 285.915C390.377 285.005 389.758 283.845 389.506 282.582C389.255 281.32 389.384 280.011 389.877 278.822C390.369 277.632 391.204 276.616 392.274 275.901C393.344 275.185 394.603 274.804 395.89 274.804C397.617 274.804 399.272 275.489 400.493 276.71C401.713 277.931 402.399 279.586 402.399 281.313Z" fill="#92E3A9" stroke="#263238" stroke-width="1.08162" stroke-linecap="round" stroke-linejoin="round"/>
<path d="M312.287 267.153C312.683 268.466 312.681 269.868 312.28 271.18C311.88 272.492 311.099 273.655 310.037 274.524C308.975 275.392 307.68 275.927 306.315 276.059C304.949 276.191 303.575 275.916 302.367 275.268C301.158 274.619 300.168 273.627 299.523 272.416C298.878 271.206 298.606 269.831 298.742 268.466C298.878 267.101 299.416 265.807 300.287 264.748C301.158 263.688 302.324 262.911 303.637 262.514C304.51 262.248 305.426 262.157 306.334 262.247C307.242 262.336 308.123 262.604 308.927 263.035C309.731 263.466 310.441 264.052 311.018 264.759C311.595 265.465 312.026 266.279 312.287 267.153Z" fill="#92E3A9" stroke="#263238" stroke-width="1.08162" stroke-linecap="round" stroke-linejoin="round"/>
<path d="M316.538 293.749C318.496 290.734 317.639 286.703 314.625 284.745C311.61 282.787 307.579 283.644 305.621 286.659C303.663 289.674 304.52 293.705 307.535 295.663C310.549 297.621 314.581 296.764 316.538 293.749Z" fill="white" stroke="#263238" stroke-width="1.08162" stroke-linecap="round" stroke-linejoin="round"/>
<path d="M333.199 365.044C343.384 365.044 351.641 357.081 351.641 347.259C351.641 337.436 343.384 329.473 333.199 329.473C323.014 329.473 314.757 337.436 314.757 347.259C314.757 357.081 323.014 365.044 333.199 365.044Z" fill="#92E3A9" stroke="#263238" stroke-width="1.08162" stroke-linecap="round" stroke-linejoin="round"/>
<path d="M306.078 387.169L322.964 349.257C323.688 347.629 324.986 346.323 326.61 345.589C328.233 344.855 330.07 344.743 331.771 345.275C333.526 345.813 335.012 346.995 335.931 348.584C336.85 350.172 337.133 352.05 336.724 353.839L325.605 403.684L306.078 387.169Z" fill="#263238" stroke="#263238" stroke-width="1.08162" stroke-linecap="round" stroke-linejoin="round"/>
<path d="M300.44 329.102L337.31 415.874L293.06 421.955C293.06 421.955 266.596 395.048 248.811 343.862L300.44 329.102Z" fill="#ADADAD" stroke="#263238" stroke-width="1.08162" stroke-linecap="round" stroke-linejoin="round"/>
<path d="M300.44 329.031L302.167 320.795L339.051 409.294L337.31 415.803L300.44 329.031Z" fill="white" stroke="#263238" stroke-width="1.08162" stroke-linecap="round" stroke-linejoin="round"/>
<path d="M302.167 320.795L251.851 335.968L248.811 343.79L300.44 329.031L302.167 320.795Z" fill="white" stroke="#263238" stroke-width="1.08162" stroke-linecap="round" stroke-linejoin="round"/>
<path d="M252.279 352.026L303.038 336.411" stroke="#263238" stroke-width="1.08162" stroke-linecap="round" stroke-linejoin="round"/>
<path d="M256.176 361.133L307.377 347.259" stroke="#263238" stroke-width="1.08162" stroke-linecap="round" stroke-linejoin="round"/>
<path d="M260.087 370.682L311.717 356.808" stroke="#263238" stroke-width="1.08162" stroke-linecap="round" stroke-linejoin="round"/>
<path d="M265.726 382.401L316.056 367.642" stroke="#263238" stroke-width="1.08162" stroke-linecap="round" stroke-linejoin="round"/>
<path d="M271.064 391.708L321.266 378.49" stroke="#263238" stroke-width="1.08162" stroke-linecap="round" stroke-linejoin="round"/>
<path d="M276.574 400.215L325.605 388.468" stroke="#263238" stroke-width="1.08162" stroke-linecap="round" stroke-linejoin="round"/>
<path d="M282.926 408.394L328.631 397.589" stroke="#263238" stroke-width="1.08162" stroke-linecap="round" stroke-linejoin="round"/>
<path d="M287.422 415.075L332.828 407.567" stroke="#263238" stroke-width="1.08162" stroke-linecap="round" stroke-linejoin="round"/>
<path d="M382.316 365.044C392.501 365.044 400.758 357.081 400.758 347.259C400.758 337.436 392.501 329.473 382.316 329.473C372.13 329.473 363.874 337.436 363.874 347.259C363.874 357.081 372.13 365.044 382.316 365.044Z" fill="#92E3A9" stroke="#263238" stroke-width="1.08162" stroke-linecap="round" stroke-linejoin="round"/>
<path d="M409.422 387.169L392.536 349.257C391.812 347.629 390.515 346.323 388.891 345.589C387.267 344.855 385.43 344.743 383.729 345.275C381.975 345.813 380.49 346.995 379.574 348.585C378.657 350.174 378.377 352.051 378.79 353.839L389.91 403.684L409.422 387.169Z" fill="#263238" stroke="#263238" stroke-width="1.08162" stroke-linecap="round" stroke-linejoin="round"/>
<path d="M415.075 329.102L378.19 415.874L422.44 421.955C422.44 421.955 448.904 395.048 466.689 343.862L415.075 329.102Z" fill="#ADADAD" stroke="#263238" stroke-width="1.08162" stroke-linecap="round" stroke-linejoin="round"/>
<path d="M415.075 329.031L413.333 320.795L376.449 409.294L378.191 415.803L415.075 329.031Z" fill="white" stroke="#263238" stroke-width="1.08162" stroke-linecap="round" stroke-linejoin="round"/>
<path d="M413.333 320.795L463.664 335.968L466.704 343.79L415.075 329.031L413.333 320.795Z" fill="white" stroke="#263238" stroke-width="1.08162" stroke-linecap="round" stroke-linejoin="round"/>
<path d="M463.221 352.026L412.462 336.411" stroke="#263238" stroke-width="1.08162" stroke-linecap="round" stroke-linejoin="round"/>
<path d="M459.324 361.133L408.123 347.259" stroke="#263238" stroke-width="1.08162" stroke-linecap="round" stroke-linejoin="round"/>
<path d="M455.413 370.682L403.784 356.808" stroke="#263238" stroke-width="1.08162" stroke-linecap="round" stroke-linejoin="round"/>
<path d="M449.775 382.401L399.445 367.642" stroke="#263238" stroke-width="1.08162" stroke-linecap="round" stroke-linejoin="round"/>
<path d="M444.436 391.708L394.249 378.49" stroke="#263238" stroke-width="1.08162" stroke-linecap="round" stroke-linejoin="round"/>
<path d="M438.927 400.215L389.91 388.468" stroke="#263238" stroke-width="1.08162" stroke-linecap="round" stroke-linejoin="round"/>
<path d="M432.589 408.394L386.869 397.589" stroke="#263238" stroke-width="1.08162" stroke-linecap="round" stroke-linejoin="round"/>
<path d="M428.079 415.075L382.673 407.567" stroke="#263238" stroke-width="1.08162" stroke-linecap="round" stroke-linejoin="round"/>
<path d="M448.69 254.891L453.486 256.99" stroke="#263238" stroke-width="1.08162" stroke-miterlimit="10"/>
<path d="M445.692 256.69L450.488 264.184" stroke="#263238" stroke-width="1.08162" stroke-miterlimit="10"/>
<path d="M442.995 256.99L442.096 261.786" stroke="#263238" stroke-width="1.08162" stroke-miterlimit="10"/>
<path d="M454.685 225.83H466.361" stroke="#263238" stroke-width="1.08162" stroke-miterlimit="10"/>
<path d="M445.692 226.429L462.464 231.225" stroke="#263238" stroke-width="1.08162" stroke-miterlimit="10"/>
<path d="M451.987 220.148L462.764 218.65" stroke="#263238" stroke-width="1.08162" stroke-miterlimit="10"/>
<path d="M413.333 257.29L416.331 265.982" stroke="#263238" stroke-width="1.08162" stroke-miterlimit="10"/>
<path d="M417.23 256.69L425.609 270.479" stroke="#263238" stroke-width="1.08162" stroke-miterlimit="10"/>
<path d="M420.228 248.611L428.307 251.309" stroke="#263238" stroke-width="1.08162" stroke-miterlimit="10"/>
<path d="M464.863 244.115L462.165 247.055L464.12 250.538L460.48 248.868L457.783 251.808L458.239 247.84L454.614 246.17L458.525 245.385L458.996 241.417L460.951 244.9L464.863 244.115Z" fill="#92E3A9" stroke="#263238" stroke-width="0.540812" stroke-linecap="round" stroke-linejoin="round"/>
<path d="M469.059 204.561L466.347 207.502L468.317 210.985L464.677 209.314L461.979 212.255L462.436 208.287L458.811 206.617L462.722 205.832L463.178 201.863L465.148 205.346L469.059 204.561Z" fill="#92E3A9" stroke="#263238" stroke-width="0.540812" stroke-linecap="round" stroke-linejoin="round"/>
<path d="M425.309 273.776L422.612 276.716L424.567 280.199L420.941 278.529L418.229 281.47L418.686 277.502L415.061 275.831L418.972 275.046L419.443 271.078L421.398 274.561L425.309 273.776Z" fill="#92E3A9" stroke="#263238" stroke-width="0.540812" stroke-linecap="round" stroke-linejoin="round"/>
<path d="M295.986 208.415C307.11 208.415 316.127 199.5 316.127 188.503C316.127 177.506 307.11 168.591 295.986 168.591C284.863 168.591 275.846 177.506 275.846 188.503C275.846 199.5 284.863 208.415 295.986 208.415Z" fill="#ADADAD" stroke="#263238" stroke-width="1.08162" stroke-linecap="round" stroke-linejoin="round"/>
<path d="M383.757 202.977C394.881 202.977 403.898 194.062 403.898 183.064C403.898 172.067 394.881 163.152 383.757 163.152C372.634 163.152 363.617 172.067 363.617 183.064C363.617 194.062 372.634 202.977 383.757 202.977Z" fill="#ADADAD" stroke="#263238" stroke-width="1.08162" stroke-linecap="round" stroke-linejoin="round"/>
<path d="M343.262 249.125C357.255 249.125 368.599 238.286 368.599 224.916C368.599 211.546 357.255 200.707 343.262 200.707C329.269 200.707 317.926 211.546 317.926 224.916C317.926 238.286 329.269 249.125 343.262 249.125Z" fill="#92E3A9" stroke="#263238" stroke-width="1.08162" stroke-linecap="round" stroke-linejoin="round"/>
<path d="M324.72 212.483L328.217 227.842C329.262 231.649 331.618 234.964 334.87 237.202C338.122 239.441 342.06 240.458 345.989 240.075C349.915 239.694 353.582 237.941 356.344 235.124C359.106 232.307 360.787 228.607 361.09 224.673L362.275 209.314L324.72 212.483Z" fill="#263238" stroke="#263238" stroke-width="1.08162" stroke-linecap="round" stroke-linejoin="round"/>
<path d="M301.639 147.779L292.146 185.791L386.698 178.097L372.681 141.898L301.639 147.779Z" fill="white" stroke="#263238" stroke-width="1.08162" stroke-linecap="round" stroke-linejoin="round"/>
<path d="M292.146 185.791L308.876 227.414L383.086 220.177L386.698 178.097L292.146 185.791Z" fill="#E5E5E5" stroke="#263238" stroke-width="1.08162" stroke-linecap="round" stroke-linejoin="round"/>
<path d="M334.669 202.763C334.412 208.672 329.245 213.326 323.064 213.797C316.884 214.268 310.832 210.399 309.504 204.547C308.077 197.838 313.087 191.244 321.009 190.744C328.931 190.244 334.94 196.025 334.669 202.763Z" fill="#92E3A9" stroke="#263238" stroke-width="1.08162" stroke-linecap="round" stroke-linejoin="round"/>
<path d="M329.944 203.091C329.867 204.959 329.09 206.73 327.768 208.052C326.446 209.374 324.675 210.151 322.807 210.228C320.911 210.433 319.005 209.934 317.452 208.826C315.9 207.718 314.808 206.079 314.385 204.219C313.686 200.165 316.869 196.354 321.522 196.04C322.543 195.925 323.576 196.019 324.559 196.316C325.542 196.612 326.454 197.105 327.241 197.764C328.029 198.423 328.674 199.235 329.139 200.151C329.603 201.066 329.877 202.066 329.944 203.091Z" fill="white" stroke="#263238" stroke-width="1.08162" stroke-linecap="round" stroke-linejoin="round"/>
<path d="M376.734 198.695C376.492 204.604 371.325 209.257 365.144 209.728C358.963 210.199 352.897 206.331 351.584 200.465C350.085 193.77 355.166 187.175 363.088 186.662C371.011 186.148 377.02 191.957 376.734 198.695Z" fill="#92E3A9" stroke="#263238" stroke-width="1.08162" stroke-linecap="round" stroke-linejoin="round"/>
<path d="M372.01 199.023C371.936 200.892 371.16 202.665 369.838 203.988C368.515 205.31 366.742 206.086 364.873 206.16C362.975 206.361 361.07 205.859 359.517 204.749C357.965 203.639 356.874 201.997 356.451 200.136C355.752 196.082 358.935 192.286 363.588 191.972C364.609 191.853 365.644 191.944 366.629 192.239C367.613 192.534 368.528 193.026 369.316 193.686C370.104 194.346 370.749 195.159 371.212 196.077C371.676 196.995 371.947 197.997 372.01 199.023Z" fill="white" stroke="#263238" stroke-width="1.08162" stroke-linecap="round" stroke-linejoin="round"/>
<path d="M335.126 219.92C334.256 219.929 333.417 219.601 332.783 219.005C332.15 218.409 331.771 217.592 331.727 216.723C331.683 215.854 331.976 215.002 332.546 214.345C333.116 213.688 333.917 213.276 334.784 213.197L352.883 211.384C353.773 211.295 354.661 211.563 355.353 212.129C356.045 212.696 356.484 213.513 356.573 214.403C356.662 215.293 356.394 216.181 355.828 216.873C355.261 217.565 354.444 218.004 353.554 218.093L335.526 219.906L335.126 219.92Z" fill="#263238" stroke="#263238" stroke-width="1.08162" stroke-linecap="round" stroke-linejoin="round"/>
<path d="M303.38 166.478C307.156 166.478 310.217 163.417 310.217 159.641C310.217 155.865 307.156 152.804 303.38 152.804C299.604 152.804 296.543 155.865 296.543 159.641C296.543 163.417 299.604 166.478 303.38 166.478Z" fill="#92E3A9" stroke="#263238" stroke-width="1.08162" stroke-linecap="round" stroke-linejoin="round"/>
<path d="M299.155 161.496C302.38 161.496 304.994 158.883 304.994 155.658C304.994 152.434 302.38 149.82 299.155 149.82C295.931 149.82 293.317 152.434 293.317 155.658C293.317 158.883 295.931 161.496 299.155 161.496Z" fill="#92E3A9" stroke="#263238" stroke-width="1.08162" stroke-linecap="round" stroke-linejoin="round"/>
<path d="M298.027 149.449C298.025 150.358 297.753 151.245 297.246 151.999C296.739 152.753 296.02 153.34 295.18 153.685C294.34 154.031 293.416 154.12 292.526 153.941C291.635 153.762 290.817 153.323 290.176 152.68C289.535 152.036 289.098 151.217 288.922 150.326C288.746 149.435 288.838 148.512 289.186 147.673C289.534 146.834 290.124 146.117 290.879 145.612C291.635 145.108 292.523 144.839 293.431 144.839C294.036 144.839 294.635 144.958 295.193 145.19C295.752 145.422 296.259 145.762 296.686 146.19C297.113 146.618 297.452 147.127 297.682 147.686C297.912 148.245 298.029 148.844 298.027 149.449Z" fill="#92E3A9" stroke="#263238" stroke-width="1.08162" stroke-linecap="round" stroke-linejoin="round"/>
<path d="M292.318 147.836L281.869 138.13" stroke="#263238" stroke-width="1.08162" stroke-linecap="round" stroke-linejoin="round"/>
<path d="M370.525 161.753C374.301 161.753 377.362 158.692 377.362 154.916C377.362 151.14 374.301 148.079 370.525 148.079C366.749 148.079 363.688 151.14 363.688 154.916C363.688 158.692 366.749 161.753 370.525 161.753Z" fill="#92E3A9" stroke="#263238" stroke-width="1.08162" stroke-linecap="round" stroke-linejoin="round"/>
<path d="M374.751 156.772C377.975 156.772 380.589 154.158 380.589 150.934C380.589 147.709 377.975 145.096 374.751 145.096C371.526 145.096 368.913 147.709 368.913 150.934C368.913 154.158 371.526 156.772 374.751 156.772Z" fill="#92E3A9" stroke="#263238" stroke-width="1.08162" stroke-linecap="round" stroke-linejoin="round"/>
<path d="M375.878 144.725C375.881 145.633 376.153 146.52 376.66 147.274C377.166 148.028 377.885 148.615 378.725 148.961C379.565 149.306 380.489 149.395 381.38 149.216C382.27 149.037 383.088 148.599 383.729 147.955C384.371 147.312 384.807 146.493 384.983 145.602C385.159 144.71 385.067 143.787 384.719 142.948C384.371 142.109 383.782 141.392 383.026 140.888C382.271 140.383 381.383 140.114 380.474 140.114C379.869 140.114 379.271 140.233 378.712 140.465C378.153 140.697 377.646 141.037 377.219 141.465C376.792 141.894 376.454 142.402 376.224 142.961C375.994 143.521 375.876 144.12 375.878 144.725Z" fill="#92E3A9" stroke="#263238" stroke-width="1.08162" stroke-linecap="round" stroke-linejoin="round"/>
<path d="M381.588 143.097L392.036 133.405" stroke="#263238" stroke-width="1.08162" stroke-linecap="round" stroke-linejoin="round"/>
<path d="M366.286 394.163C366.286 397.46 364.102 400.13 361.405 400.13C358.707 400.13 356.537 397.46 356.537 394.163C356.537 390.866 358.721 388.197 361.405 388.197C364.088 388.197 366.286 390.866 366.286 394.163Z" fill="white" stroke="#263238" stroke-width="1.08162" stroke-linecap="round" stroke-linejoin="round"/>
<path d="M375.935 399.159H375.564L362.018 397.175C361.377 397.054 360.808 396.691 360.429 396.16C360.05 395.629 359.891 394.973 359.985 394.328C360.079 393.683 360.419 393.099 360.934 392.698C361.448 392.298 362.097 392.112 362.746 392.179L376.292 394.149C376.948 394.212 377.553 394.529 377.978 395.032C378.404 395.536 378.616 396.185 378.569 396.842C378.523 397.499 378.221 398.112 377.729 398.551C377.237 398.989 376.593 399.217 375.935 399.188V399.159Z" fill="white" stroke="#263238" stroke-width="1.08162" stroke-miterlimit="10"/>
<path d="M186.619 422.055C184.849 419.271 185.191 415.845 187.532 414.418C189.873 412.991 193.071 414.061 194.841 416.83C196.611 419.6 196.197 423.04 193.913 424.481C191.629 425.923 188.375 424.838 186.619 422.055Z" fill="white" stroke="#263238" stroke-width="1.08162" stroke-linecap="round" stroke-linejoin="round"/>
<path d="M175.785 423.011C175.89 422.946 175.999 422.888 176.113 422.84L188.617 417.259C189.222 417.021 189.896 417.025 190.498 417.272C191.1 417.518 191.584 417.987 191.849 418.581C192.114 419.175 192.14 419.849 191.92 420.461C191.701 421.074 191.254 421.578 190.673 421.869L178.168 427.45C177.586 427.709 176.927 427.738 176.325 427.531C175.722 427.324 175.219 426.898 174.918 426.336C174.616 425.775 174.538 425.12 174.699 424.504C174.86 423.887 175.248 423.354 175.785 423.011Z" fill="white" stroke="#263238" stroke-width="1.08162" stroke-miterlimit="10"/>
<path d="M510.111 358.107C508.341 355.324 508.755 351.912 511.025 350.47C513.295 349.029 516.563 350.114 518.333 352.883C520.103 355.652 519.689 359.092 517.42 360.534C515.15 361.975 511.867 360.89 510.111 358.107Z" fill="white" stroke="#263238" stroke-width="1.08162" stroke-linecap="round" stroke-linejoin="round"/>
<path d="M499.292 359.078L499.606 358.906L512.11 353.325C512.415 353.172 512.748 353.083 513.089 353.062C513.429 353.042 513.771 353.091 514.092 353.206C514.413 353.321 514.708 353.499 514.958 353.731C515.209 353.964 515.409 354.244 515.548 354.556C515.687 354.867 515.762 355.204 515.767 355.545C515.772 355.887 515.708 356.225 515.579 356.541C515.45 356.857 515.258 357.143 515.015 357.383C514.772 357.623 514.483 357.811 514.165 357.936L501.675 363.517C501.093 363.775 500.434 363.804 499.831 363.598C499.229 363.391 498.726 362.964 498.425 362.403C498.123 361.841 498.045 361.187 498.206 360.57C498.367 359.953 498.754 359.42 499.292 359.078Z" fill="white" stroke="#263238" stroke-width="1.08162" stroke-miterlimit="10"/>
<path d="M268.695 424.738C262.985 424.738 258.389 427.479 258.389 430.848C258.389 434.216 262.999 436.957 268.695 436.957C274.39 436.957 279.015 434.216 279.015 430.848C279.015 427.479 274.39 424.738 268.695 424.738ZM268.695 434.002C265.754 434.002 263.37 432.575 263.37 430.848C263.37 429.12 265.754 427.693 268.695 427.693C271.635 427.693 274.033 429.12 274.033 430.848C274.033 432.575 271.649 434.002 268.695 434.002Z" fill="white" stroke="#263238" stroke-width="1.08162" stroke-miterlimit="10"/>
<path d="M361.59 425.723L354.553 422.868L347.501 425.723L345.76 432.004L350.641 437.042H358.464L363.331 432.004L361.59 425.723ZM356.537 433.745H352.568L350.085 431.19L350.97 428.007L354.553 426.58L358.121 428.007L359.006 431.19L356.537 433.745Z" fill="white" stroke="#263238" stroke-width="1.08162" stroke-linecap="round" stroke-linejoin="round"/>
<path d="M495.138 334.526L488.086 331.672L481.035 334.526L479.293 340.821L484.175 345.86H491.997L496.879 340.821L495.138 334.526ZM490.07 342.563H486.102L483.633 340.008L484.503 336.81L488.086 335.383L491.669 336.81L492.554 340.008L490.07 342.563Z" fill="white" stroke="#263238" stroke-width="1.08162" stroke-linecap="round" stroke-linejoin="round"/>
<path d="M408.708 440.054C408.509 440.055 408.311 440.021 408.123 439.954C407.164 439.55 406.356 438.856 405.811 437.97C405.026 436.757 404.383 434.602 405.625 431.261C406.06 430.04 406.789 428.944 407.747 428.07C408.706 427.196 409.864 426.572 411.121 426.251C412.733 425.861 414.414 425.851 416.031 426.22C417.648 426.589 419.158 427.327 420.442 428.378C420.614 428.518 420.756 428.69 420.861 428.885C420.966 429.08 421.031 429.295 421.052 429.515C421.073 429.736 421.05 429.958 420.985 430.17C420.919 430.381 420.812 430.578 420.67 430.748C420.386 431.092 419.977 431.309 419.532 431.352C419.088 431.395 418.645 431.26 418.3 430.976C417.425 430.277 416.402 429.786 415.31 429.539C414.217 429.292 413.083 429.295 411.991 429.549C411.254 429.739 410.575 430.108 410.015 430.623C409.455 431.139 409.03 431.785 408.78 432.503C407.509 435.858 409.037 436.786 409.351 436.871C409.752 437.05 410.069 437.377 410.237 437.783C410.404 438.19 410.409 438.645 410.25 439.055C410.12 439.355 409.905 439.61 409.63 439.788C409.356 439.966 409.035 440.059 408.708 440.054Z" fill="white" stroke="#263238" stroke-width="1.08162" stroke-linecap="round" stroke-linejoin="round"/>
<path d="M443.509 446.249C442.976 446.251 442.446 446.169 441.938 446.006L414.547 437.085C413.899 436.894 413.296 436.575 412.774 436.147C412.252 435.719 411.821 435.19 411.507 434.593C411.192 433.995 411.001 433.341 410.944 432.668C410.886 431.995 410.964 431.318 411.173 430.676C411.382 430.034 411.718 429.44 412.16 428.93C412.602 428.42 413.142 428.003 413.748 427.705C414.354 427.407 415.013 427.234 415.687 427.195C416.361 427.156 417.036 427.252 417.673 427.479L445.079 436.4C446.216 436.777 447.183 437.547 447.806 438.571C448.429 439.596 448.667 440.808 448.478 441.992C448.289 443.175 447.686 444.254 446.776 445.034C445.865 445.813 444.707 446.244 443.509 446.249Z" fill="white" stroke="#263238" stroke-width="1.08162" stroke-linecap="round" stroke-linejoin="round"/>
<path d="M413.719 436.857C413.719 436.857 414.804 429.891 423.511 429.72" stroke="#263238" stroke-width="1.08162" stroke-linecap="round" stroke-linejoin="round"/>
<path d="M419.585 438.37C419.585 438.37 420.685 431.418 429.377 431.233" stroke="#263238" stroke-width="1.08162" stroke-linecap="round" stroke-linejoin="round"/>
<path d="M424.81 440.325C424.81 440.325 425.894 433.374 434.587 433.188" stroke="#263238" stroke-width="1.08162" stroke-linecap="round" stroke-linejoin="round"/>
<path d="M430.248 441.867C430.248 441.867 431.333 434.916 440.026 434.73" stroke="#263238" stroke-width="1.08162" stroke-linecap="round" stroke-linejoin="round"/>
<path d="M435.687 443.808C435.687 443.808 436.771 436.857 445.464 436.671" stroke="#263238" stroke-width="1.08162" stroke-linecap="round" stroke-linejoin="round"/>
<path d="M443.494 446.149C443.299 446.146 443.105 446.107 442.923 446.035C441.96 445.64 441.145 444.951 440.597 444.065C439.812 442.852 439.169 440.697 440.411 437.342C440.851 436.123 441.581 435.029 442.538 434.156C443.496 433.283 444.652 432.657 445.907 432.332C447.52 431.944 449.202 431.936 450.819 432.307C452.436 432.679 453.945 433.42 455.228 434.473C455.4 434.613 455.542 434.785 455.647 434.98C455.752 435.175 455.817 435.389 455.838 435.61C455.859 435.831 455.837 436.053 455.771 436.265C455.705 436.476 455.598 436.673 455.456 436.843C455.172 437.187 454.763 437.404 454.319 437.447C453.874 437.49 453.431 437.355 453.087 437.071C452.211 436.371 451.189 435.88 450.096 435.632C449.003 435.385 447.869 435.389 446.777 435.644C446.04 435.829 445.361 436.195 444.8 436.708C444.239 437.221 443.815 437.866 443.566 438.584C442.295 441.953 443.823 442.866 444.137 442.952C444.491 443.107 444.782 443.378 444.961 443.721C445.141 444.064 445.198 444.458 445.123 444.837C445.048 445.217 444.846 445.559 444.549 445.808C444.253 446.057 443.881 446.198 443.494 446.206V446.149Z" fill="white" stroke="#263238" stroke-width="1.08162" stroke-linecap="round" stroke-linejoin="round"/>
</svg>
