<svg width="50" height="50" viewBox="0 0 50 50" fill="none" xmlns="http://www.w3.org/2000/svg">
<path fill-rule="evenodd" clip-rule="evenodd" d="M25 48.0289L34.2062 19.6875H15.7937L25 48.0289Z" fill="#E24329"/>
<path fill-rule="evenodd" clip-rule="evenodd" d="M25 48.0289L15.7937 19.6875H2.89062L25 48.0289Z" fill="#FC6D26"/>
<path fill-rule="evenodd" clip-rule="evenodd" d="M2.89072 19.6875L0.0938432 28.3047C-0.0305853 28.6875 -0.0306311 29.0999 0.0937124 29.4828C0.218056 29.8656 0.460406 30.1993 0.786031 30.4359L25.0001 48.0289L2.89072 19.6875Z" fill="#FCA326"/>
<path fill-rule="evenodd" clip-rule="evenodd" d="M2.89062 19.6875H15.793L10.2484 2.62966C9.96328 1.75154 8.72109 1.75154 8.43594 2.62966L2.89062 19.6875Z" fill="#E24329"/>
<path fill-rule="evenodd" clip-rule="evenodd" d="M25 48.0289L34.2063 19.6875H47.1094L25 48.0289Z" fill="#FC6D26"/>
<path fill-rule="evenodd" clip-rule="evenodd" d="M47.1094 19.6875L49.9062 28.2969C50.0307 28.6797 50.0307 29.0921 49.9064 29.4749C49.782 29.8578 49.5397 30.1915 49.2141 30.4281L25 48.0289L47.1094 19.6875Z" fill="#FCA326"/>
<path fill-rule="evenodd" clip-rule="evenodd" d="M47.1094 19.6875H34.2063L39.7516 2.62185C40.0368 1.74373 41.279 1.74373 41.5641 2.62185L47.1094 19.6875Z" fill="#E24329"/>
</svg>
