<svg width="511" height="490" viewBox="0 0 511 490" fill="none" xmlns="http://www.w3.org/2000/svg">
<path d="M55.5298 196.762H49.2241C42.4574 196.762 35.9679 199.393 31.1831 204.077C26.3984 208.76 23.7103 215.112 23.7103 221.735V358.772C23.7103 365.395 26.3984 371.747 31.1831 376.43C35.9679 381.114 42.4574 383.745 49.2241 383.745H135.736C142.502 383.745 148.992 381.114 153.777 376.43C158.561 371.747 161.249 365.395 161.249 358.772" stroke="#263238" stroke-width="1.10311" stroke-linecap="round" stroke-linejoin="round" stroke-dasharray="4.41 4.41"/>
<path d="M154.199 67.4576V40.3896C154.199 36.3394 155.841 32.4547 158.763 29.5876C161.686 26.7205 165.651 25.1052 169.789 25.0962H282.291C286.435 25.0962 290.41 26.7075 293.34 29.5755C296.27 32.4436 297.916 36.3335 297.916 40.3896" stroke="#263238" stroke-width="1.10311" stroke-linecap="round" stroke-linejoin="round" stroke-dasharray="4.41 4.41"/>
<path d="M255.417 489.398C378.475 489.398 478.234 475.754 478.234 458.925C478.234 442.095 378.475 428.452 255.417 428.452C132.358 428.452 32.5989 442.095 32.5989 458.925C32.5989 475.754 132.358 489.398 255.417 489.398Z" fill="#92E3A9"/>
<path opacity="0.5" d="M255.417 489.398C378.475 489.398 478.234 475.754 478.234 458.925C478.234 442.095 378.475 428.452 255.417 428.452C132.358 428.452 32.5989 442.095 32.5989 458.925C32.5989 475.754 132.358 489.398 255.417 489.398Z" fill="white"/>
<path d="M465.46 103.772V308.815C465.46 315.518 462.74 321.946 457.899 326.687C453.058 331.427 446.492 334.092 439.644 334.095H71.1894C64.3414 334.092 57.775 331.427 52.9339 326.687C48.0927 321.946 45.3732 315.518 45.3732 308.815V103.772C45.3732 103.169 45.3732 102.634 45.4546 101.996C45.9082 95.6174 48.8163 89.6447 53.5924 85.2827C58.3685 80.9207 64.657 78.4939 71.1894 78.4921H439.644C446.183 78.4947 452.478 80.9278 457.256 85.2993C462.033 89.6709 464.936 95.6548 465.378 102.041C465.437 102.588 465.46 103.18 465.46 103.772Z" fill="white" stroke="#263238" stroke-width="1.10311" stroke-linecap="round" stroke-linejoin="round"/>
<path d="M57.9381 111.47H454.21V300.878C454.21 307.16 451.66 313.185 447.122 317.627C442.584 322.069 436.429 324.564 430.011 324.564H82.1488C75.7308 324.564 69.5757 322.069 65.0375 317.627C60.4993 313.185 57.9497 307.16 57.9497 300.878V111.47H57.9381Z" fill="#263238"/>
<path opacity="0.2" d="M454.221 111.47V300.878C454.255 307.125 451.753 313.129 447.266 317.571C442.778 322.012 436.672 324.528 430.29 324.564H81.8696C75.4875 324.528 69.3814 322.012 64.8936 317.571C60.4059 313.129 57.904 307.125 57.9381 300.878V111.47H454.221Z" fill="white"/>
<path d="M465.378 102.041H45.4546C45.9081 95.6629 48.8163 89.6903 53.5924 85.3282C58.3685 80.9662 64.657 78.5395 71.1894 78.5376H439.644C446.176 78.5395 452.464 80.9662 457.241 85.3282C462.017 89.6903 464.925 95.6629 465.378 102.041Z" fill="#92E3A9" stroke="#263238" stroke-width="1.10311" stroke-miterlimit="10"/>
<path d="M97.0522 90.244C97.0522 91.1291 96.784 91.9943 96.2816 92.7303C95.7792 93.4662 95.0651 94.0398 94.2297 94.3786C93.3942 94.7173 92.4749 94.8059 91.588 94.6332C90.701 94.4606 89.8863 94.0343 89.2469 93.4085C88.6075 92.7826 88.172 91.9852 87.9956 91.117C87.8192 90.2489 87.9097 89.3491 88.2558 88.5313C88.6018 87.7136 89.1879 87.0146 89.9398 86.5229C90.6917 86.0311 91.5756 85.7687 92.4799 85.7687C93.6926 85.7687 94.8555 86.2402 95.713 87.0795C96.5705 87.9187 97.0522 89.057 97.0522 90.244Z" fill="#263238"/>
<path d="M116.388 90.244C116.388 91.1291 116.12 91.9943 115.618 92.7303C115.115 93.4662 114.401 94.0398 113.566 94.3786C112.73 94.7173 111.811 94.8059 110.924 94.6332C110.037 94.4606 109.222 94.0343 108.583 93.4085C107.943 92.7826 107.508 91.9852 107.332 91.117C107.155 90.2489 107.246 89.3491 107.592 88.5313C107.938 87.7136 108.524 87.0146 109.276 86.5229C110.028 86.0311 110.912 85.7687 111.816 85.7687C113.029 85.7687 114.191 86.2402 115.049 87.0795C115.906 87.9187 116.388 89.057 116.388 90.244Z" fill="#263238"/>
<path d="M131.152 94.7192C133.677 94.7192 135.724 92.7156 135.724 90.244C135.724 87.7723 133.677 85.7687 131.152 85.7687C128.627 85.7687 126.58 87.7723 126.58 90.244C126.58 92.7156 128.627 94.7192 131.152 94.7192Z" fill="#263238"/>
<path d="M454.21 111.47V300.878C454.21 307.16 451.66 313.185 447.122 317.627C442.584 322.069 436.429 324.564 430.011 324.564H82.1488C76.5474 324.563 71.1198 322.66 66.7917 319.18C62.4636 315.699 59.5031 310.857 58.4151 305.479V305.41C58.1194 303.909 57.9713 302.384 57.973 300.855V111.47H454.21Z" stroke="#263238" stroke-width="1.10311" stroke-miterlimit="10"/>
<path d="M453.837 140.759C452.141 139.826 450.336 139.096 448.462 138.584L446.287 129.075H437.049L434.897 138.584C433.012 139.087 431.199 139.817 429.499 140.759L421.157 135.532L414.63 141.897L419.877 150.062C418.917 151.727 418.17 153.502 417.655 155.346L407.94 157.453V166.494L417.655 168.624C418.164 170.477 418.911 172.26 419.877 173.93L414.537 182.152L421.075 188.541L429.464 183.314C431.16 184.257 432.97 184.991 434.85 185.5L437.014 194.997H446.217L448.381 185.5C450.256 184.986 452.061 184.252 453.756 183.314L454.186 183.587V140.531L453.837 140.759ZM441.691 173.782C439.33 173.782 437.022 173.097 435.058 171.813C433.095 170.528 431.565 168.703 430.662 166.567C429.759 164.432 429.523 162.082 429.985 159.815C430.446 157.549 431.584 155.467 433.255 153.833C434.925 152.2 437.053 151.088 439.37 150.638C441.686 150.189 444.086 150.422 446.267 151.308C448.448 152.194 450.312 153.693 451.622 155.616C452.932 157.539 453.63 159.799 453.628 162.11C453.628 163.644 453.319 165.163 452.719 166.58C452.119 167.997 451.24 169.284 450.131 170.368C449.022 171.452 447.706 172.311 446.258 172.897C444.81 173.483 443.258 173.784 441.691 173.782Z" fill="#263238"/>
<path d="M287.352 149.926V130.863L266.876 126.411C265.771 122.538 264.209 118.804 262.222 115.285L264.701 111.47H168.021L170.406 115.183C168.394 118.686 166.831 122.419 165.752 126.297L145.264 130.761V149.869L165.752 154.344C166.831 158.251 168.394 162.014 170.406 165.549L159.155 182.87L172.942 196.352L190.626 185.329C194.213 187.305 198.029 188.853 201.992 189.941L206.553 209.926H225.982L230.566 189.896C234.516 188.802 238.32 187.254 241.898 185.284L259.593 196.307L273.368 182.824L262.188 165.504C264.169 161.99 265.731 158.265 266.841 154.401L287.352 149.926ZM216.384 165.026C211.407 165.026 206.541 163.581 202.403 160.874C198.265 158.168 195.039 154.321 193.135 149.82C191.23 145.32 190.732 140.367 191.703 135.589C192.674 130.811 195.07 126.422 198.59 122.978C202.109 119.533 206.593 117.187 211.474 116.237C216.356 115.286 221.416 115.774 226.014 117.638C230.612 119.502 234.542 122.66 237.308 126.71C240.073 130.761 241.549 135.523 241.549 140.394C241.55 143.629 240.9 146.833 239.636 149.822C238.372 152.811 236.518 155.527 234.181 157.815C231.844 160.102 229.07 161.916 226.016 163.154C222.962 164.391 219.689 165.027 216.384 165.026Z" fill="#263238"/>
<path d="M158.132 280.825L158.958 265.691L142.937 261.272C142.194 258.162 141.093 255.144 139.657 252.276L149.336 238.976L138.958 227.714L124.462 235.685C121.691 233.978 118.728 232.591 115.632 231.551L112.863 215.472L97.4129 214.777L92.9453 230.503C89.7622 231.202 86.6764 232.273 83.7543 233.692L70.1773 224.229L58.6478 234.375L66.8615 248.575C65.1006 251.276 63.6788 254.174 62.6267 257.207L57.973 257.959V278.456L61.3702 279.39C62.075 282.51 63.165 285.535 64.6161 288.397L57.9381 297.564L58.3802 305.41V305.479L65.2793 312.96L79.7987 304.932C82.5648 306.673 85.538 308.077 88.6523 309.111L91.3747 324.553L91.5027 325.202L106.953 325.999L107.36 324.553L111.42 310.284C114.618 309.583 117.719 308.513 120.658 307.096L134.212 316.547L145.73 306.412L137.586 292.201C139.33 289.504 140.733 286.609 141.762 283.58L158.132 280.825ZM117.098 257.196C114.451 254.314 110.991 252.266 107.155 251.31C103.319 250.354 99.2793 250.533 95.5472 251.824C91.815 253.116 88.558 255.461 86.1882 258.565C83.8184 261.669 82.4423 265.39 82.2339 269.26C82.0255 273.129 82.9942 276.971 85.0175 280.302C87.0408 283.632 90.0277 286.3 93.6004 287.968C97.1732 289.637 101.171 290.23 105.089 289.674C109.006 289.118 112.667 287.437 115.609 284.844C119.536 281.372 121.898 276.517 122.177 271.344C122.456 266.171 120.63 261.1 117.098 257.241V257.196Z" fill="#263238"/>
<path d="M281.71 258.266C282.308 255.923 282.624 253.519 282.652 251.103L293.763 245.41L290.691 234.375L278.15 234.945C276.879 232.882 275.369 230.971 273.647 229.251L277.359 217.51L267.237 211.817L258.767 220.858C256.377 220.294 253.931 219.988 251.473 219.947L245.655 209.072L234.394 212.067L234.987 224.354C232.88 225.597 230.927 227.076 229.17 228.761L217.163 225.129L211.346 235.024L220.654 243.303C220.052 245.638 219.743 248.035 219.734 250.443L208.601 256.137L211.672 267.16L224.237 266.579C225.482 268.652 226.987 270.565 228.716 272.273L224.982 283.956L235.115 289.65L243.538 280.677C245.931 281.266 248.388 281.568 250.856 281.576L256.673 292.463L267.935 289.468L267.435 278.969L267.353 277.169C269.49 275.938 271.467 274.459 273.24 272.762L285.235 276.406L290.191 267.934L291.029 266.499L281.71 258.266ZM255.102 264.962C252.214 265.742 249.155 265.664 246.312 264.739C243.469 263.815 240.97 262.084 239.134 259.768C237.297 257.451 236.204 254.653 235.994 251.728C235.784 248.803 236.467 245.883 237.955 243.338C239.443 240.793 241.67 238.738 244.353 237.433C247.036 236.128 250.054 235.633 253.025 236.01C255.996 236.387 258.786 237.619 261.041 239.55C263.295 241.481 264.913 244.024 265.689 246.856C266.724 250.631 266.191 254.653 264.208 258.044C262.225 261.436 258.951 263.923 255.102 264.962Z" fill="#263238"/>
<path d="M410.523 277.67L413.083 262.525L397.423 256.364C397.068 253.137 396.314 249.963 395.178 246.913L406.451 234.626L397.33 222.099L381.787 228.556C379.207 226.532 376.386 224.819 373.387 223.455L372.48 206.954L357.006 204.449L350.666 219.708C347.382 220.086 344.154 220.831 341.044 221.929L328.456 210.894L315.716 219.822L322.325 235.024C320.506 237.246 318.927 239.647 317.613 242.187C317.438 242.54 317.252 242.893 317.089 243.246L300.243 244.157L297.672 259.28L300.208 260.282L313.331 265.463C313.69 268.675 314.444 271.834 315.577 274.869L304.28 287.236L313.413 299.762L328.945 293.271C331.517 295.314 334.334 297.042 337.333 298.418L338.205 314.839L353.667 317.344L359.996 302.199C363.287 301.847 366.521 301.105 369.629 299.99L382.194 311.024L394.992 302.085L388.384 286.871C390.489 284.343 392.267 281.57 393.677 278.615L410.523 277.67ZM367.128 276.987C363.873 279.273 359.998 280.563 355.994 280.693C351.99 280.824 348.036 279.789 344.633 277.72C341.229 275.651 338.529 272.64 336.874 269.069C335.219 265.498 334.683 261.527 335.334 257.657C335.985 253.788 337.794 250.195 340.531 247.331C343.269 244.468 346.813 242.464 350.714 241.572C354.616 240.681 358.7 240.942 362.45 242.322C366.2 243.702 369.447 246.14 371.782 249.327C374.909 253.602 376.173 258.918 375.295 264.105C374.418 269.292 371.472 273.926 367.105 276.987H367.128Z" fill="#263238"/>
<path d="M200.829 165.549H79.1588C70.7351 165.549 63.9064 172.233 63.9064 180.478V345.358C63.9064 353.603 70.7351 360.286 79.1588 360.286H200.829C209.253 360.286 216.081 353.603 216.081 345.358V180.478C216.081 172.233 209.253 165.549 200.829 165.549Z" fill="#92E3A9" stroke="#263238" stroke-width="1.10311" stroke-miterlimit="10"/>
<path opacity="0.2" d="M200.829 165.549H79.1588C70.7351 165.549 63.9064 172.233 63.9064 180.478V345.358C63.9064 353.603 70.7351 360.286 79.1588 360.286H200.829C209.253 360.286 216.081 353.603 216.081 345.358V180.478C216.081 172.233 209.253 165.549 200.829 165.549Z" fill="black"/>
<path d="M230.24 195.191V360.07C230.242 362.032 229.848 363.974 229.082 365.787C228.317 367.599 227.193 369.246 225.777 370.634C224.36 372.021 222.679 373.122 220.827 373.873C218.976 374.624 216.992 375.011 214.988 375.011H93.3175C91.3146 375.009 89.3315 374.621 87.4816 373.87C85.6317 373.118 83.9511 372.017 82.5359 370.63C81.1206 369.243 79.9984 367.596 79.2334 365.784C78.4683 363.972 78.0753 362.031 78.0768 360.07V195.191C78.0768 191.234 79.6821 187.438 82.54 184.639C85.3979 181.839 89.2744 180.265 93.3175 180.262H214.988C219.033 180.262 222.912 181.835 225.773 184.635C228.633 187.434 230.24 191.232 230.24 195.191Z" fill="white" stroke="#263238" stroke-width="1.10311" stroke-linecap="round" stroke-linejoin="round"/>
<path d="M230.24 195.191V204.016H78.0768V195.191C78.0768 191.234 79.6821 187.438 82.54 184.639C85.3979 181.839 89.2744 180.265 93.3175 180.262H214.988C219.033 180.262 222.912 181.835 225.773 184.635C228.633 187.434 230.24 191.232 230.24 195.191Z" fill="#92E3A9" stroke="#263238" stroke-width="1.10311" stroke-miterlimit="10"/>
<path d="M129.826 214.242H92.3868V220.391H129.826V214.242Z" fill="#92E3A9"/>
<path d="M129.826 269.346H92.3868V275.495H129.826V269.346Z" fill="#92E3A9"/>
<path d="M129.826 319.314H92.3868V325.464H129.826V319.314Z" fill="#92E3A9"/>
<path d="M198.712 229.467H92.3868V233.977H198.712V229.467Z" fill="#263238"/>
<path d="M179.538 238.088H92.3868V242.483H179.538V238.088Z" fill="#263238"/>
<path d="M190.952 246.571H92.3868V250.967H190.952V246.571Z" fill="#263238"/>
<path d="M190.952 255.043H92.3868V259.439H190.952V255.043Z" fill="#263238"/>
<path d="M198.712 279.435H92.3868V283.945H198.712V279.435Z" fill="#263238"/>
<path d="M179.538 288.056H92.3868V292.451H179.538V288.056Z" fill="#263238"/>
<path d="M190.952 296.539H92.3868V300.935H190.952V296.539Z" fill="#263238"/>
<path d="M198.712 334.3H92.3868V338.81H198.712V334.3Z" fill="#263238"/>
<path d="M179.538 342.932H92.3868V347.328H179.538V342.932Z" fill="#263238"/>
<path d="M190.952 351.416H92.3868V355.811H190.952V351.416Z" fill="#263238"/>
<path d="M401.739 65.9317V132.571C401.739 134.91 401.269 137.225 400.354 139.385C399.44 141.545 398.099 143.508 396.409 145.161C394.719 146.814 392.713 148.124 390.506 149.018C388.298 149.912 385.933 150.371 383.544 150.37H226.738C224.349 150.371 221.983 149.912 219.776 149.018C217.568 148.124 215.562 146.814 213.872 145.161C212.183 143.508 210.842 141.545 209.928 139.385C209.013 137.225 208.542 134.91 208.542 132.571V65.9317C208.545 61.2091 210.463 56.6808 213.875 53.3415C217.287 50.0021 221.913 48.1247 226.738 48.1217H383.544C388.369 48.1217 392.998 49.9981 396.41 53.3381C399.822 56.6782 401.739 61.2082 401.739 65.9317Z" fill="white" stroke="#222221" stroke-width="1.10311" stroke-miterlimit="10"/>
<path d="M401.739 65.9317V67.4576H208.542V65.9317C208.545 61.2091 210.463 56.6808 213.875 53.3415C217.287 50.0021 221.913 48.1247 226.738 48.1217H383.544C388.369 48.1217 392.998 49.9981 396.41 53.3381C399.822 56.6782 401.739 61.2082 401.739 65.9317Z" fill="#92E3A9" stroke="#263238" stroke-width="1.10311" stroke-miterlimit="10"/>
<path d="M236.93 60.9781C236.54 61.361 236.042 61.6219 235.5 61.7279C234.958 61.8339 234.397 61.7802 233.886 61.5735C233.376 61.3669 232.939 61.0166 232.632 60.567C232.325 60.1174 232.161 59.5888 232.161 59.0479C232.161 58.5071 232.325 57.9785 232.632 57.5289C232.939 57.0793 233.376 56.729 233.886 56.5223C234.397 56.3157 234.958 56.262 235.5 56.3679C236.042 56.4739 236.54 56.7349 236.93 57.1178C237.449 57.6316 237.741 58.3252 237.741 59.0479C237.741 59.7707 237.449 60.4643 236.93 60.9781Z" fill="#263238"/>
<path d="M249.867 60.9781C249.477 61.361 248.979 61.6219 248.437 61.7279C247.896 61.8339 247.334 61.7802 246.823 61.5735C246.313 61.3669 245.876 61.0166 245.569 60.567C245.262 60.1174 245.098 59.5888 245.098 59.0479C245.098 58.5071 245.262 57.9785 245.569 57.5289C245.876 57.0793 246.313 56.729 246.823 56.5223C247.334 56.3157 247.896 56.262 248.437 56.3679C248.979 56.4739 249.477 56.7349 249.867 57.1178C250.386 57.6316 250.678 58.3252 250.678 59.0479C250.678 59.7707 250.386 60.4643 249.867 60.9781Z" fill="#263238"/>
<path d="M262.804 60.9781C262.414 61.361 261.916 61.6219 261.375 61.7279C260.833 61.8339 260.271 61.7802 259.76 61.5735C259.25 61.3669 258.813 61.0166 258.506 60.567C258.199 60.1174 258.035 59.5888 258.035 59.0479C258.035 58.5071 258.199 57.9785 258.506 57.5289C258.813 57.0793 259.25 56.729 259.76 56.5223C260.271 56.3157 260.833 56.262 261.375 56.3679C261.916 56.4739 262.414 56.7349 262.804 57.1178C263.323 57.6316 263.615 58.3252 263.615 59.0479C263.615 59.7707 263.323 60.4643 262.804 60.9781Z" fill="#263238"/>
<path d="M284.013 79.7106H220.863V133.141H284.013V79.7106Z" stroke="#263238" stroke-width="1.10311" stroke-linecap="round" stroke-linejoin="round" stroke-dasharray="4.41 4.41"/>
<path d="M366.441 79.7106H293.763V83.4684H366.441V79.7106Z" fill="#263238"/>
<path d="M349.514 87.4882H293.763V91.2346H349.514V87.4882Z" fill="#263238"/>
<path d="M376.773 95.2317H293.763V99.0237H376.773V95.2317Z" fill="#263238"/>
<path d="M364.452 102.782H293.763V106.574H364.452V102.782Z" fill="#263238"/>
<path d="M407.021 231.323H371.479C367.283 231.323 363.882 234.653 363.882 238.759V259.177C363.882 263.284 367.283 266.613 371.479 266.613H407.021C411.217 266.613 414.618 263.284 414.618 259.177V238.759C414.618 234.653 411.217 231.323 407.021 231.323Z" fill="white" stroke="#263238" stroke-width="1.10311" stroke-linecap="round" stroke-linejoin="round"/>
<path d="M380.251 241.937L370.49 247.926L379.553 255.784" stroke="#263238" stroke-width="1.10311" stroke-linecap="round" stroke-linejoin="round"/>
<path d="M398.028 256.353L406.8 249.042L396.679 242.551" stroke="#263238" stroke-width="1.10311" stroke-linecap="round" stroke-linejoin="round"/>
<path d="M384.998 260.863L392.199 238.748" stroke="#263238" stroke-width="1.10311" stroke-linecap="round" stroke-linejoin="round"/>
<path d="M309.934 453.311C309.934 453.311 276.195 462.774 271.483 464.414C267.202 465.894 255.591 469.88 246.877 468.638C246.036 468.52 245.204 468.345 244.387 468.115C235.557 465.541 231.59 463.138 230.426 457.706C229.263 452.275 233.661 448.266 237.895 445.704C242.13 443.142 265.096 440.466 265.096 440.466L270.646 442.06L309.934 453.311Z" fill="#92E3A9"/>
<path d="M246.877 468.638C246.036 468.52 245.204 468.345 244.387 468.115C235.557 465.541 231.59 463.138 230.426 457.706C229.263 452.275 233.661 448.266 237.895 445.704C242.13 443.142 265.096 440.466 265.096 440.466L270.646 442.06C265.62 444.338 246.912 445.579 242.828 447.879C238.745 450.179 236.779 454.507 239.187 460.405C240.478 463.48 243.922 466.498 246.877 468.638Z" fill="white"/>
<path d="M304.862 454.654C304.862 454.654 279.523 461.077 269.471 465.188C259.419 469.299 240.257 471.098 233.405 462.626C226.552 454.153 232.614 446.843 239.443 445.214C246.272 443.586 260.082 441.024 267.621 442.06" stroke="#263238" stroke-width="1.10311" stroke-linecap="round" stroke-linejoin="round"/>
<path d="M247.377 468.194C247.377 468.194 234.487 461.271 238.768 451.568C241.932 444.417 259.128 445.966 267.644 442.06" stroke="#263238" stroke-width="1.10311" stroke-linecap="round" stroke-linejoin="round"/>
<path d="M412.699 470.176C412.35 473.592 411.128 476.792 407.638 478.807C405.311 480.151 402.007 480.948 397.272 480.903C385.44 480.755 363.196 472.476 363.196 472.476L342.37 461.202L353.202 444.429L356.169 439.874L363.824 441.559C363.824 441.559 370.164 445.078 376.54 447.879C382.915 450.68 398.401 451.295 403.857 455.588C409.313 459.881 413.292 464.55 412.699 470.176Z" fill="#92E3A9"/>
<path d="M412.699 470.176C412.35 473.592 411.128 476.792 407.638 478.807C408.643 475.449 408.438 471.855 407.056 468.627C404.729 463.514 397.156 459.005 387.197 458.253C377.238 457.501 369.618 452.946 365.627 450.908C362.509 449.325 355.936 445.863 353.202 444.429L356.168 439.874L363.824 441.559C363.824 441.559 370.164 445.078 376.54 447.879C382.915 450.68 398.4 451.295 403.857 455.588C409.313 459.881 413.292 464.55 412.699 470.176Z" fill="white"/>
<path d="M346.989 464.368C361.98 472.897 378.547 478.435 395.736 480.663C399.529 481.108 403.938 481.176 406.475 478.386C407.149 477.58 407.652 476.65 407.952 475.65C408.251 474.65 408.343 473.602 408.22 472.567C407.766 467.329 403.264 463.184 398.331 461.1C393.398 459.016 387.965 458.538 382.718 457.387C377.499 456.236 372.455 454.429 367.71 452.013C363.94 450.088 360.299 447.754 356.145 446.888C351.992 446.023 347.047 447.07 344.825 450.623" stroke="#263238" stroke-width="1.10311" stroke-linecap="round" stroke-linejoin="round"/>
<path d="M405.079 479.81C407.028 478.896 408.732 477.549 410.055 475.877C411.378 474.204 412.284 472.252 412.699 470.176C413.455 465.245 410.582 460.28 406.544 457.251C402.507 454.222 397.447 452.787 392.455 451.774C387.464 450.76 382.357 450.077 377.575 448.221C370.281 445.419 363.079 439.908 355.47 441.878" stroke="#263238" stroke-width="1.10311" stroke-linecap="round" stroke-linejoin="round"/>
<path d="M370.49 287.953L335.25 274.835L334.808 274.664C334.808 274.664 334.936 273.753 335.041 272.387C335.262 269.631 335.378 265.144 334.052 263.63C332.086 261.352 326.525 263.265 321.091 260.828C315.658 258.391 305.618 262.753 305.618 262.753C305.618 262.753 298.358 261.443 295.147 266.568C293.518 270.701 294.077 276.816 294.077 276.816L293.414 277.044C289.214 278.581 266.364 286.997 261.536 290.379C256.196 294.08 250.286 332.08 248.389 343.24C246.493 354.399 243.119 364.454 244.829 368.292C246.54 372.13 271.088 390.634 285.212 395.406C299.335 400.177 349.421 398.822 349.421 398.822C349.421 398.822 350.235 398.605 351.689 398.15C360.159 395.485 390.21 384.485 406.16 358.658C406.184 358.704 390.734 309.134 370.49 287.953ZM275.276 351.871C272.682 353.67 274.113 360.64 274.113 360.64L269.703 356.836L280.779 330.178L285.502 350.676C285.502 350.676 277.87 350.083 275.276 351.871ZM363.882 368.804C362.66 369.419 367.372 356.608 365.138 353.705C362.905 350.801 356.168 351.074 356.168 351.074L356.738 347.578L360.729 327.536L362.055 325.999C362.055 325.999 375.76 348.99 378.215 357.098C378.215 357.121 363.277 368.804 363.882 368.804Z" fill="#92E3A9"/>
<path d="M303.954 204.813L285.758 223.717C285.758 223.717 283.257 225.892 284.246 231.369C285.235 236.846 287.562 241.618 289.319 241.937C290.709 242.175 292.118 242.297 293.53 242.301C293.53 242.301 297.428 250.568 300.196 253.814C300.196 253.814 301.15 266.579 300.639 270.121C300.639 270.121 307.177 275.712 313.331 276.418C319.486 277.124 328.991 267.9 328.991 267.9L331.318 256.604C331.318 256.604 336.902 248.314 337.275 246.104C337.647 243.895 340.206 244.465 341.463 243.371C342.719 242.278 345.616 237.416 346.117 232.815C346.617 228.215 346.628 222.931 341.172 224.48C336.437 223.238 339.404 213.445 339.404 213.445L331.085 206.271L303.954 204.813Z" fill="white"/>
<path opacity="0.5" d="M335.25 274.835C334.976 275.539 334.661 276.227 334.308 276.896C331.306 282.43 318.229 292.987 318.229 292.987L314.274 281.087L312.11 292.987C307.747 291.119 294.438 279.834 294.438 279.834C294.438 279.834 293.984 278.775 293.437 277.124L294.1 276.896C294.1 276.896 293.542 270.735 295.171 266.647C298.358 261.523 305.641 262.833 305.641 262.833C305.641 262.833 315.682 258.471 321.115 260.908C326.548 263.345 332.109 261.455 334.075 263.709C336.041 265.964 334.831 274.71 334.831 274.71L335.25 274.835Z" fill="white"/>
<path opacity="0.2" d="M370.49 287.953L335.25 274.835L334.808 274.664C334.808 274.664 334.936 273.753 335.041 272.387L334.308 276.862L329.096 283.785C334.667 285.793 340.107 288.136 345.384 290.8C347.91 292.125 349.971 294.162 351.298 296.647C352.626 299.133 353.16 301.952 352.829 304.738L346.338 359.114L343.673 389.985L351.713 398.15C360.182 395.485 390.233 384.485 406.184 358.658C406.184 358.704 390.734 309.134 370.49 287.953ZM363.882 368.804C362.66 369.419 367.372 356.608 365.138 353.705C362.905 350.801 356.168 351.074 356.168 351.074L356.739 347.578L360.729 327.536L362.055 325.999C362.055 325.999 375.76 348.99 378.215 357.098C378.215 357.121 363.277 368.804 363.882 368.804Z" fill="black"/>
<path opacity="0.2" d="M287.841 353.705L282.361 335.781C282.361 335.781 272.53 302.973 265.794 294.888L267.563 317.959C267.563 317.959 261.745 345.517 256.429 353.705C251.112 361.892 249.925 363.953 256.429 363.953C262.932 363.953 278.766 376.297 278.766 376.297L277.545 366.049L287.841 353.705ZM274.031 360.64L269.622 356.836L280.697 330.178L285.421 350.676C285.421 350.676 277.835 350.118 275.241 351.905C272.647 353.693 274.031 360.64 274.031 360.64Z" fill="black"/>
<path d="M300.196 253.814C300.196 253.814 301.197 263.482 300.196 267.9" stroke="#263238" stroke-width="1.10311" stroke-linecap="round" stroke-linejoin="round"/>
<path d="M330.003 266.602C330.014 263.493 330.381 260.395 331.097 257.367" stroke="#263238" stroke-width="1.10311" stroke-linecap="round" stroke-linejoin="round"/>
<path d="M332.644 212.022C332.644 212.022 338.624 219.367 338.31 224.924C337.996 230.481 337.554 237.063 337.705 243.508C337.856 249.953 327.129 263.459 321.615 264.654C316.1 265.85 311.354 266.158 307.828 262.707C304.303 259.257 300.778 254.463 296.194 248.313C291.61 242.164 292.704 228.67 292.704 228.67" stroke="#263238" stroke-width="1.10311" stroke-linecap="round" stroke-linejoin="round"/>
<path d="M318.241 233.806C317.877 235.824 317.721 237.872 317.776 239.921C317.656 241.647 318.204 243.355 319.311 244.704C319.974 245.364 320.928 245.899 321.056 246.81C321.053 247.22 320.937 247.622 320.72 247.973C320.503 248.324 320.193 248.61 319.823 248.803C319.077 249.172 318.358 249.59 317.671 250.056" stroke="#263238" stroke-width="1.10311" stroke-linecap="round" stroke-linejoin="round"/>
<path d="M308.782 250.762C308.782 250.762 309.469 255.123 315.437 256.034" stroke="#263238" stroke-width="1.10311" stroke-linecap="round" stroke-linejoin="round"/>
<path d="M309.399 237.131C309.399 238.395 308.841 239.409 308.154 239.409C307.468 239.409 306.909 238.395 306.909 237.131C306.909 235.867 307.468 234.854 308.154 234.854C308.841 234.854 309.399 235.878 309.399 237.131Z" fill="#263238"/>
<path d="M327.211 237.678C327.211 238.942 326.652 239.955 325.966 239.955C325.28 239.955 324.721 238.93 324.721 237.678C324.721 236.425 325.28 235.4 325.966 235.4C326.652 235.4 327.211 236.414 327.211 237.678Z" fill="#263238"/>
<path d="M323.616 232.155C323.616 232.155 329.433 226.461 334.308 232.815" stroke="#263238" stroke-width="2.20621" stroke-linecap="round" stroke-linejoin="round"/>
<path d="M311.365 232.269C311.365 232.269 307.689 228.237 301.895 232.269" stroke="#263238" stroke-width="2.20621" stroke-linecap="round" stroke-linejoin="round"/>
<path d="M300.638 259.188C300.638 259.188 304.187 268.754 312.11 271.476C320.033 274.197 330.55 260.088 330.55 260.088L330.003 258.255C330.003 258.255 323.104 267.023 315.437 265.531C307.77 264.04 300.196 253.859 300.196 253.859L300.638 259.188Z" fill="#263238"/>
<path d="M293.53 241.937C293.53 241.937 288.806 243.565 287.55 239.966C286.293 236.368 281.989 226.882 285.758 223.717C289.528 220.551 292.553 227.896 292.553 227.896" stroke="#263238" stroke-width="1.10311" stroke-linecap="round" stroke-linejoin="round"/>
<path d="M337.693 243.895C337.693 243.895 342.079 244.761 343.336 241.162C344.592 237.564 348.897 228.078 345.128 224.912C341.358 221.747 338.333 229.091 338.333 229.091" stroke="#263238" stroke-width="1.10311" stroke-linecap="round" stroke-linejoin="round"/>
<path d="M292.553 237.131C294.194 236.878 295.674 236.023 296.695 234.74C297.318 233.613 297.713 232.38 297.858 231.107C298.29 228.685 298.508 226.232 298.509 223.774C298.458 222.813 298.548 221.851 298.777 220.915C299.126 219.974 299.664 219.111 300.359 218.376C302 216.486 303.989 214.891 305.56 212.933C306.402 212.008 307.042 210.926 307.442 209.751C307.842 208.576 307.994 207.334 307.887 206.1C311.486 209.005 315.692 211.102 320.208 212.246C324.725 213.389 329.442 213.549 334.029 212.716C342.347 211.122 350.316 203.982 349.351 195.009C349.168 193.504 348.509 192.093 347.466 190.974C346.423 189.855 345.048 189.084 343.534 188.768C339.427 187.766 335.739 189.907 332.016 191.285C325.233 193.79 318.59 189.486 311.738 188.768C305.92 188.142 298.672 188.86 295.624 194.565C295.624 194.565 285.153 195.772 280.5 204.244C275.846 212.716 284.653 224.434 284.653 224.434C284.653 224.434 288.143 220.243 292.716 228.716L292.553 237.131Z" fill="#263238"/>
<path d="M333.365 209.858C333.365 209.858 330.643 223.751 337.752 230.481C337.752 230.481 339.31 226.302 340.881 225.277C342.014 222.811 342.493 220.106 342.276 217.411C342.058 214.717 341.15 212.119 339.636 209.858C334.378 201.773 333.365 209.858 333.365 209.858Z" fill="#263238"/>
<path opacity="0.2" d="M346.326 194.052C345.702 195.948 344.644 197.679 343.232 199.114C341.821 200.548 340.094 201.649 338.182 202.331C328.316 206.271 318.741 201.91 308.852 201.056C300.79 200.35 291.89 207.478 291.32 215.586" stroke="white" stroke-width="1.10311" stroke-linecap="round" stroke-linejoin="round"/>
<path opacity="0.2" d="M285.235 213.445C285.356 210.245 286.405 207.146 288.259 204.508C290.113 201.871 292.696 199.804 295.706 198.55" stroke="white" stroke-width="1.10311" stroke-linecap="round" stroke-linejoin="round"/>
<path d="M297.916 266.602C302.255 271.027 307.489 274.518 313.285 276.85C313.285 276.85 325.093 273.491 331.097 265.463" stroke="#263238" stroke-width="1.10311" stroke-linecap="round" stroke-linejoin="round"/>
<path d="M309.984 246.403C315.229 244.049 317.53 237.978 315.124 232.845C312.719 227.712 306.517 225.459 301.273 227.814C296.028 230.168 293.726 236.238 296.132 241.372C298.538 246.505 304.739 248.758 309.984 246.403Z" stroke="#263238" stroke-width="1.10311" stroke-linecap="round" stroke-linejoin="round"/>
<path d="M330.229 247.303C335.956 246.615 340.028 241.513 339.325 235.908C338.622 230.302 333.409 226.316 327.682 227.004C321.955 227.692 317.883 232.794 318.586 238.4C319.289 244.006 324.502 247.992 330.229 247.303Z" stroke="#263238" stroke-width="1.10311" stroke-linecap="round" stroke-linejoin="round"/>
<path d="M300.196 262.787C299.138 263.059 298.146 263.537 297.281 264.192C296.415 264.848 295.693 265.667 295.159 266.602C293.309 269.79 294.426 279.823 294.426 279.823C294.426 279.823 303.977 289.069 312.11 292.975L314.506 279.777L318.229 292.975C318.229 292.975 330.817 284.264 334.308 276.896C334.308 276.896 335.471 268.299 334.308 265.509C334.043 264.734 333.54 264.058 332.867 263.575C332.194 263.091 331.384 262.824 330.55 262.81" stroke="#263238" stroke-width="1.10311" stroke-linecap="round" stroke-linejoin="round"/>
<path d="M285.235 351.086C285.235 351.086 281.5 326.602 276.532 316.616" stroke="#263238" stroke-width="1.10311" stroke-linecap="round" stroke-linejoin="round"/>
<path d="M265.794 294.888C268.687 298.912 271.269 303.141 273.519 307.54" stroke="#263238" stroke-width="1.10311" stroke-linecap="round" stroke-linejoin="round"/>
<path d="M363.882 313.165C364.885 309.072 366.259 305.074 367.989 301.22" stroke="#263238" stroke-width="1.10311" stroke-linecap="round" stroke-linejoin="round"/>
<path d="M356.168 351.085C356.168 351.085 358.856 334.3 362.067 320.476" stroke="#263238" stroke-width="1.10311" stroke-linecap="round" stroke-linejoin="round"/>
<path d="M360.729 327.513C363.327 324.142 366.979 321.695 371.13 320.544" stroke="#263238" stroke-width="1.10311" stroke-linecap="round" stroke-linejoin="round"/>
<path d="M334.82 274.664C334.82 274.664 356.494 283.148 370.49 287.965C370.49 287.965 387.709 303.805 406.172 358.704C406.172 358.704 389.256 386.558 357.076 395.485" stroke="#263238" stroke-width="1.10311" stroke-linecap="round" stroke-linejoin="round"/>
<path d="M362.66 369.795L378.215 357.121C378.215 357.121 386.44 351.006 394.992 355.185" stroke="#263238" stroke-width="1.10311" stroke-linecap="round" stroke-linejoin="round"/>
<path d="M362.067 325.999C362.067 325.999 374.923 344.595 378.215 357.121" stroke="#263238" stroke-width="1.10311" stroke-linecap="round" stroke-linejoin="round"/>
<path d="M274.206 361.346L269.657 357.121C269.657 357.121 262.909 355.982 255.254 360.981" stroke="#263238" stroke-width="1.10311" stroke-linecap="round" stroke-linejoin="round"/>
<path d="M269.657 357.121C269.657 357.121 275.311 338.901 280.884 329.574" stroke="#263238" stroke-width="1.10311" stroke-linecap="round" stroke-linejoin="round"/>
<path d="M294.1 276.896C294.1 276.896 262.909 288.352 259.849 291.7C256.789 295.048 245.167 359.102 244.853 366.436C244.585 372.995 268.877 387.719 280.918 393.925" stroke="#263238" stroke-width="1.10311" stroke-linecap="round" stroke-linejoin="round"/>
<path d="M317.427 298.544C317.427 298.942 317.306 299.332 317.08 299.663C316.853 299.995 316.532 300.253 316.155 300.406C315.779 300.558 315.365 300.598 314.966 300.521C314.566 300.443 314.199 300.251 313.911 299.969C313.623 299.687 313.427 299.328 313.348 298.937C313.268 298.546 313.309 298.141 313.465 297.772C313.621 297.404 313.885 297.089 314.223 296.868C314.562 296.646 314.96 296.528 315.367 296.528C315.638 296.527 315.907 296.578 316.157 296.678C316.408 296.779 316.635 296.928 316.827 297.115C317.018 297.303 317.17 297.525 317.273 297.771C317.376 298.016 317.428 298.279 317.427 298.544Z" fill="#263238"/>
<path d="M353.516 405.836H282.547C282.106 405.836 281.683 405.665 281.371 405.359C281.059 405.054 280.884 404.64 280.884 404.208C280.884 403.776 281.059 403.362 281.371 403.057C281.683 402.751 282.106 402.58 282.547 402.58H353.516C353.957 402.58 354.38 402.751 354.692 403.057C355.004 403.362 355.18 403.776 355.18 404.208C355.18 404.64 355.004 405.054 354.692 405.359C354.38 405.665 353.957 405.836 353.516 405.836Z" fill="#263238"/>
<path d="M356.005 400.393L365.511 356.665C365.658 355.987 365.649 355.286 365.483 354.612C365.318 353.938 365 353.308 364.554 352.77C364.108 352.232 363.544 351.798 362.904 351.501C362.265 351.203 361.565 351.05 360.857 351.051H277.905C277.203 351.051 276.51 351.204 275.875 351.498C275.24 351.792 274.68 352.221 274.235 352.752C273.79 353.284 273.471 353.905 273.301 354.572C273.131 355.239 273.114 355.934 273.252 356.608L281.779 398.879C281.988 399.917 282.553 400.854 283.38 401.535C284.208 402.217 285.248 402.601 286.328 402.625L351.235 404.083C352.345 404.107 353.428 403.752 354.299 403.078C355.169 402.405 355.773 401.455 356.005 400.393Z" fill="white" stroke="#263238" stroke-width="1.10311" stroke-linecap="round" stroke-linejoin="round"/>
<path d="M325.733 376.286C325.731 377.567 325.341 378.819 324.612 379.883C323.883 380.947 322.849 381.775 321.639 382.264C320.429 382.753 319.098 382.879 317.815 382.628C316.532 382.377 315.353 381.759 314.428 380.852C313.504 379.946 312.874 378.791 312.62 377.534C312.366 376.278 312.497 374.976 312.999 373.792C313.5 372.609 314.349 371.598 315.437 370.886C316.525 370.175 317.805 369.795 319.113 369.795C319.984 369.795 320.846 369.963 321.649 370.289C322.453 370.616 323.184 371.094 323.799 371.697C324.413 372.3 324.901 373.015 325.233 373.803C325.565 374.59 325.735 375.434 325.733 376.286Z" fill="#263238"/>
<path d="M338.752 355.23H348.606" stroke="#263238" stroke-width="1.10311" stroke-linecap="round" stroke-linejoin="round"/>
<path d="M291.692 355.23H329.096" stroke="#263238" stroke-width="1.10311" stroke-linecap="round" stroke-linejoin="round"/>
<path d="M356.169 446.82L348.606 466.247C348.606 466.247 329.317 461.487 304.617 456.533C278.778 451.352 251.798 444.645 237.802 420.606C236.104 417.679 234.964 414.218 235.766 410.938C237.779 402.637 248.82 400.382 256.091 399.551C260.663 399.067 265.257 398.816 269.855 398.799C272.181 398.799 279.918 397.558 281.791 398.913C284.606 400.922 287.609 402.665 290.761 404.117C294.891 405.836 355.18 402.58 355.18 402.58C356.229 400.341 356.87 397.94 357.076 395.485C366.558 390.771 388.488 386.785 397.796 388.55C412.373 391.317 420.878 399.642 419.261 408.364C417.643 417.087 385.44 440.477 356.169 446.82Z" fill="#263238"/>
<path d="M356.168 446.82C356.168 446.82 337.821 442.06 322.837 432.153C307.852 422.246 296.148 410.744 275.264 413.124" stroke="white" stroke-width="1.10311" stroke-linecap="round" stroke-linejoin="round"/>
<path d="M319.405 429.818C328.875 427.154 335.82 421.153 343.417 415.402C351.431 409.107 360.036 403.571 369.117 398.867" stroke="white" stroke-width="1.10311" stroke-linecap="round" stroke-linejoin="round"/>
<path d="M316.065 238.748H318.846" stroke="#263238" stroke-width="1.10311" stroke-linecap="round" stroke-linejoin="round"/>
</svg>
