<svg width="55" height="55" viewBox="0 0 55 55" fill="none" xmlns="http://www.w3.org/2000/svg">
<g clip-path="url(#clip0)">
<path d="M50.9266 0.00195312H4.05969C1.82187 0.00195312 0 1.77742 0 3.96367V51.0299C0 53.2213 1.82187 55.0002 4.05969 55.0002H50.93C53.173 55.0002 55 53.2213 55 51.0299V3.96367C55 1.77742 53.173 0.00195312 50.9266 0.00195312Z" fill="#0177B5"/>
<path d="M8.15556 20.6199H16.3282V46.8652H8.15556V20.6199ZM12.2359 7.55738C14.8432 7.55738 16.9624 9.67659 16.9624 12.2839C16.9624 14.8913 14.8432 17.0157 12.2376 17.0157C10.9833 17.0129 9.78121 16.5136 8.89416 15.6269C8.0071 14.7401 7.50733 13.5382 7.50415 12.2839C7.50415 11.6628 7.62658 11.0478 7.86443 10.474C8.10228 9.90018 8.4509 9.3789 8.89035 8.93993C9.3298 8.50096 9.85146 8.15291 10.4255 7.91568C10.9996 7.67845 11.6147 7.5567 12.2359 7.55738ZM21.4312 20.6199H29.2549V24.2069H29.3632C30.4529 22.1444 33.1135 19.9685 37.0976 19.9685C45.3579 19.9685 46.8824 25.4049 46.8824 32.4707V46.8669H38.7304V34.1C38.7304 31.0578 38.6754 27.1391 34.492 27.1391C30.2467 27.1391 29.5935 30.4563 29.5935 33.8766V46.86H21.4432V20.6147L21.4312 20.6199Z" fill="white"/>
</g>
<defs>
<clipPath id="clip0">
<rect width="55" height="55" fill="white"/>
</clipPath>
</defs>
</svg>
